<svg width="87.239mm" height="87.55mm" version="1.1" viewBox="0 0 87.239 87.55" xml:space="preserve" xmlns="http://www.w3.org/2000/svg"><g transform="translate(-47.597 -45.798)"><g transform="translate(-23.828 -82.884)"><g fill="#fff"><g transform="translate(46.193 25.512)"><rect x="55.646" y="103.18" width="13.172" height="13.18" ry="1.1104" style="paint-order:normal"/><rect x="68.852" y="116.48" width="13.172" height="13.18" ry="1.1104" style="paint-order:normal"/></g><g transform="translate(15.784 55.797)"><rect x="55.646" y="103.18" width="13.172" height="13.18" ry="1.1104" style="paint-order:normal"/><rect x="68.852" y="116.48" width="13.172" height="13.18" ry="1.1104" style="paint-order:normal"/></g><g transform="translate(46.123 56.003)"><rect x="55.646" y="103.18" width="13.172" height="13.18" ry="1.1104" style="paint-order:normal"/><rect x="68.852" y="116.48" width="13.172" height="13.18" ry="1.1104" style="paint-order:normal"/></g><g transform="translate(76.641 55.916)"><rect x="55.646" y="103.18" width="13.172" height="13.18" ry="1.1104" style="paint-order:normal"/><rect x="68.852" y="116.48" width="13.172" height="13.18" ry="1.1104" style="paint-order:normal"/></g><g transform="translate(76.338 86.573)"><rect x="55.646" y="103.18" width="13.172" height="13.18" ry="1.1104" style="paint-order:normal"/><rect x="68.852" y="116.48" width="13.172" height="13.18" ry="1.1104" style="paint-order:normal"/></g><g transform="translate(46.116 86.463)"><rect x="55.646" y="103.18" width="13.172" height="13.18" ry="1.1104" style="paint-order:normal"/><rect x="68.852" y="116.48" width="13.172" height="13.18" ry="1.1104" style="paint-order:normal"/></g></g><rect x="77.032" y="134.39" width="15.794" height="15.709" ry="1.0887" fill="#ff3131"/><rect x="72.81" y="130.07" width="23.575" height="23.629" ry="1.2755" fill="none" stroke="#ff3131" stroke-width="2.7702" style="paint-order:normal"/><g transform="translate(60.832 .043363)"><rect x="77.032" y="134.39" width="15.794" height="15.709" ry="1.0887" fill="#ff3131"/><rect x="72.81" y="130.07" width="23.575" height="23.629" ry="1.2755" fill="none" stroke="#ff3131" stroke-width="2.7702" style="paint-order:normal"/></g><g transform="translate(.0022546 60.959)"><rect x="77.032" y="134.39" width="15.794" height="15.709" ry="1.0887" fill="#ff3131"/><rect x="72.81" y="130.07" width="23.575" height="23.629" ry="1.2755" fill="none" stroke="#ff3131" stroke-width="2.7702" style="paint-order:normal"/></g></g><g fill="none" stroke="#aaa" stroke-width=".5"><path d="m75.962 46.047 0.0053 87.032" style="paint-order:normal"/><path d="m134.67 74.187-87.028 0.0109" style="paint-order:normal"/><path d="m134.7 104.69-87.028 0.0109" style="paint-order:normal"/><path d="m106.42 45.833 3e-3 87.034" style="paint-order:normal"/></g></g></svg>
