<svg width="175.84mm" height="87.55mm" version="1.1" viewBox="0 0 175.84 87.55" xml:space="preserve" xmlns="http://www.w3.org/2000/svg"><g transform="translate(-47.568 -45.798)"><g transform="translate(-23.828 -82.884)"><g fill="#fff"><g transform="translate(46.193 25.512)"><rect x="55.646" y="103.18" width="13.172" height="13.18" ry="1.1104" style="paint-order:normal"/><rect x="68.852" y="116.48" width="13.172" height="13.18" ry="1.1104" style="paint-order:normal"/></g><g transform="translate(15.784 55.797)"><rect x="55.646" y="103.18" width="13.172" height="13.18" ry="1.1104" style="paint-order:normal"/><rect x="68.852" y="116.48" width="13.172" height="13.18" ry="1.1104" style="paint-order:normal"/></g><g transform="translate(46.123 56.003)"><rect x="55.646" y="103.18" width="13.172" height="13.18" ry="1.1104" style="paint-order:normal"/><rect x="68.852" y="116.48" width="13.172" height="13.18" ry="1.1104" style="paint-order:normal"/></g><g transform="translate(76.641 55.916)"><rect x="55.646" y="103.18" width="13.172" height="13.18" ry="1.1104" style="paint-order:normal"/><rect x="68.852" y="116.48" width="13.172" height="13.18" ry="1.1104" style="paint-order:normal"/></g><g transform="translate(76.338 86.573)"><rect x="55.646" y="103.18" width="13.172" height="13.18" ry="1.1104" style="paint-order:normal"/><rect x="68.852" y="116.48" width="13.172" height="13.18" ry="1.1104" style="paint-order:normal"/></g><g transform="translate(46.116 86.463)"><rect x="55.646" y="103.18" width="13.172" height="13.18" ry="1.1104" style="paint-order:normal"/><rect x="68.852" y="116.48" width="13.172" height="13.18" ry="1.1104" style="paint-order:normal"/></g></g><g fill="none" stroke="#ff3131"><rect x="72.81" y="130.07" width="23.575" height="23.629" ry="1.2755" stroke-width="2.7702" style="paint-order:normal"/><rect x="133.74" y="130.11" width="23.58" height="23.542" ry="1.2707" stroke-width="2.7654" style="paint-order:normal"/><rect x="72.779" y="191.01" width="23.58" height="23.542" ry="1.2707" stroke-width="2.7654" style="paint-order:normal"/></g></g><g fill="none" stroke="#aaa" stroke-width=".5"><path d="m75.962 46.047 0.0053 87.032" style="paint-order:normal"/><path d="m134.67 74.187-87.028 0.0109" style="paint-order:normal"/><path d="m134.7 104.69-87.028 0.0109" style="paint-order:normal"/><path d="m106.42 45.833 3e-3 87.034" style="paint-order:normal"/></g><g transform="translate(-23.828 -82.884)"><path transform="scale(1.0341 .96698)" d="m211.56 193.75v2.2542h4.5088v-2.2542zm22.545 0v4.5088h-9.0181v2.2542h-2.2546v6.7635h2.2546v2.2547h13.527v-15.781zm-63.125 4.5088v2.2542h-2.2546v2.2547h2.2546v2.2547h9.0176v2.2542h-9.0176v2.2547h11.272v-2.2547h2.2546v-9.0177zm15.781 0v11.272h4.5088v-6.7635h2.2546v-2.2547h-2.2546v-2.2542zm6.7634 2.2542h4.5088v2.2547h4.5093v-2.2547h-2.2546v-2.2542h-6.7634zm13.527-2.2542v2.2542h4.5088v6.7635h-6.7634v2.2547h15.782v-2.2547h-4.5093v-9.0177zm-33.817 2.2542h6.7634v2.2547h-6.7634zm54.108 0h6.7634v6.7635h-6.7634z" fill="#fff" stroke="#fff" stroke-miterlimit="100" stroke-width=".913" style="font-variant-caps:normal;font-variant-east-asian:normal;font-variant-ligatures:normal;font-variant-numeric:normal"/><path transform="scale(.88105 1.135)" d="m205.35 119.97v5.1968h-5.1973v25.984h5.1973v5.1968h20.787v-5.1968h5.1972v-5.1968h5.1967v-20.787h-5.1967v-5.1968zm25.984 31.181v5.1968h5.1967v-5.1968zm10.393-31.181v36.377h10.393v-15.59h5.1972v5.1968h5.1967v5.1968h5.1967v5.1968h10.394v-5.1968h-5.1972v-5.1968h-5.1967v-5.1968h5.1967v-5.1968h5.1972v-10.394h-5.1972v-5.1968zm-31.181 5.1968h15.59v15.59h-10.393v5.1968h5.1967v5.1968h-10.393zm41.574 0h15.591v10.394h-15.591z" fill="#ff3131" style="font-variant-caps:normal;font-variant-east-asian:normal;font-variant-ligatures:normal;font-variant-numeric:normal"/></g></g></svg>
