<svg xmlns="http://www.w3.org/2000/svg" viewBox="0 0 33.05 1.34">
  <path class="border" fill="none" stroke="#ff3131" stroke-dasharray=".06 .06" stroke-width=".06"
    d="M.04.05H1.3v1.26H.04zm1.29 0h1.26v1.26H1.33zM2.66.03h1.26v1.26H2.66zm1.32 0h1.26v1.26H3.98zm2.65 0h1.26v1.26H6.63zm1.32 0H9.2v1.26H7.95zM5.3.03h1.27v1.26H5.3zm3.98 0h1.26v1.26H9.28zm1.32 0h1.26v1.26H10.6zm1.32 0h1.26v1.26h-1.26zm1.32 0h1.26v1.26h-1.26zm1.33 0h1.26v1.26h-1.26zm1.32 0h1.26v1.26h-1.26zm1.31 0h1.27v1.26H17.2zm1.34 0h1.26v1.26h-1.26zm1.32 0h1.26v1.26h-1.26zm1.32 0h1.26v1.26h-1.26zm1.32 0h1.26v1.26H22.5zm1.33 0h1.26v1.26h-1.26zm1.32 0h1.26v1.26h-1.26zm1.32 0h1.26v1.26h-1.26zm1.33 0h1.26v1.26H27.8zm1.32 0h1.26v1.26h-1.26zm1.32 0h1.26v1.26h-1.26zm1.33 0h1.26v1.26h-1.26z" />
  <path class="number" fill="#ff3131"
    d="M3.28.31c-.17 0-.39.06-.39.4 0 .25.14.39.39.39.24 0 .38-.14.38-.39 0-.22-.1-.4-.38-.4zm0 .09c.15 0 .23.1.23.3 0 .22-.08.32-.24.32-.15 0-.23-.1-.23-.31S3.12.4 3.28.4zM4.61.3c-.16 0-.38.06-.38.39 0 .25.13.4.38.4S5 .94 5 .69c0-.21-.1-.4-.39-.4zm0 .08c.16 0 .24.1.24.3 0 .22-.08.32-.24.32-.15 0-.23-.1-.23-.3 0-.2.08-.3.23-.3zM7.25.26c-.17 0-.39.06-.39.4 0 .25.13.39.39.39.24 0 .38-.14.38-.39 0-.22-.1-.4-.38-.4zm0 .09c.15 0 .23.1.23.3 0 .22-.08.32-.24.32-.15 0-.23-.1-.23-.31s.08-.31.24-.31zM2 .33c-.06.12-.1.14-.34.15v.07h.28v.55h.16V.33ZM.66.3C.61.41.57.43.33.45V.5h.28v.55h.16V.29Zm5.3-.03c-.05.12-.09.14-.34.16v.06h.29v.55h.16V.27Zm4 .06c-.05.12-.08.13-.33.15v.07h.28v.54h.16V.33Zm1.33 0c-.05.12-.1.13-.34.15v.07h.29v.54h.16V.33ZM12.61.3c-.05.12-.09.13-.33.15v.07h.28v.54h.16V.3Zm3.93 0c-.05.13-.09.14-.34.16v.07h.29v.54h.16V.31Zm3.98.02c-.06.11-.1.13-.34.15v.06h.28v.55h.16V.32Zm11.89.01c-.05.12-.1.14-.34.15v.07h.29v.55h.16V.33Zm-1.3-.05c-.06.12-.1.13-.34.15V.5h.29v.54h.16V.28Zm-3.99.01c-.05.12-.09.13-.34.15v.07h.29v.54h.16V.3ZM23.16.3c-.05.12-.09.13-.33.15v.07h.28v.54h.16V.3ZM8.56.26c-.16 0-.38.06-.38.4 0 .25.14.39.39.39s.38-.14.38-.39c0-.22-.1-.4-.38-.4zm0 .09c.16 0 .24.1.24.3 0 .22-.07.32-.24.32-.15 0-.23-.1-.23-.31s.08-.31.24-.31zm5.33-.07c-.17 0-.39.06-.39.4 0 .25.14.39.39.39s.38-.14.38-.39c0-.22-.1-.4-.38-.4zm0 .09c.15 0 .23.1.23.3 0 .22-.07.32-.24.32-.15 0-.23-.1-.23-.31s.08-.31.24-.31zm1.29-.09c-.16 0-.38.06-.38.4 0 .25.13.39.38.39s.39-.14.39-.39c0-.22-.1-.4-.39-.4zm0 .09c.16 0 .24.1.24.3 0 .22-.08.32-.24.32-.15 0-.23-.1-.23-.31s.08-.31.23-.31zm2.66-.09c-.17 0-.39.06-.39.4 0 .25.14.39.39.39.24 0 .38-.14.38-.39 0-.22-.1-.4-.38-.4zm0 .09c.15 0 .23.1.23.3 0 .22-.07.32-.24.32-.15 0-.23-.1-.23-.31s.08-.31.24-.31zm1.34-.09c-.16 0-.38.06-.38.4 0 .25.13.39.38.39s.38-.14.38-.39c0-.22-.09-.4-.38-.4zm0 .09c.16 0 .23.1.23.3 0 .22-.07.32-.23.32s-.23-.1-.23-.31.07-.31.23-.31zm2.6-.07c-.16 0-.38.06-.38.4 0 .25.13.38.38.38s.38-.13.38-.38c0-.22-.09-.4-.38-.4zm0 .08c.16 0 .24.1.24.3 0 .22-.08.32-.24.32-.16 0-.23-.1-.23-.3 0-.22.07-.32.23-.32zM24.44.3c-.16 0-.38.06-.38.4 0 .25.13.38.38.38s.39-.13.39-.38c0-.22-.1-.4-.39-.4zm0 .08c.16 0 .24.1.24.3 0 .22-.08.32-.24.32-.15 0-.23-.1-.23-.3 0-.22.08-.32.23-.32zm1.32-.09c-.16 0-.38.06-.38.4 0 .25.13.38.39.38.24 0 .38-.13.38-.38 0-.22-.1-.4-.38-.4zm0 .08c.16 0 .24.1.24.3 0 .22-.08.32-.24.32-.15 0-.23-.1-.23-.3 0-.22.08-.32.24-.32zm2.65-.08c-.16 0-.38.06-.38.4 0 .25.13.38.38.38s.38-.13.38-.38c0-.22-.09-.4-.38-.4zm0 .08c.16 0 .24.1.24.3 0 .22-.08.32-.24.32-.15 0-.23-.1-.23-.3 0-.22.07-.32.23-.32zm1.32-.11c-.16 0-.38.06-.38.4 0 .25.13.39.38.39s.39-.14.39-.39c0-.22-.1-.4-.39-.4zm0 .09c.16 0 .24.1.24.3 0 .22-.08.32-.24.32-.15 0-.23-.1-.23-.31s.08-.31.23-.31z" />
</svg>