<svg xmlns="http://www.w3.org/2000/svg" viewBox="0 0 35.738 35.768">
  <g class="finder" fill-opacity=".25" fill-rule="evenodd" stroke="#ff3131" stroke-dasharray=".06 .06"
    stroke-width=".06" paint-order="stroke fill markers">
    <path
      d="M1.35 2.72h1.26v1.26H1.35zM1.35 4.03h1.26v1.26H1.35zM4 4.03h1.26v1.26H4zM5.32 4.03h1.26v1.26H5.32zM6.64 4.03H7.9v1.26H6.64zM1.35 1.37h1.26v1.26H1.35zM4 5.35h1.26V6.6H4zM5.32 5.35h1.26V6.6H5.32zM6.64 5.35H7.9V6.6H6.64zM4 6.68h1.26v1.26H4zM5.32 6.68h1.26v1.26H5.32zM6.64 6.68H7.9v1.26H6.64zM1.35 5.35h1.26V6.6H1.35zM1.35 6.67h1.26v1.26H1.35zM1.35 7.99h1.26v1.26H1.35zM9.3 2.72h1.25v1.26H9.3zM9.3 4.03h1.25v1.26H9.3zM9.3 5.35h1.25V6.6H9.3zM9.3 6.67h1.25v1.26H9.3zM9.3 7.99h1.25v1.26H9.3zM2.67 1.37h1.26v1.26H2.67zM4 1.37h1.26v1.26H4zM5.32 1.37h1.26v1.26H5.32zM6.64 1.37H7.9v1.26H6.64zM7.97 1.37h1.26v1.26H7.97zM9.3 1.37h1.25v1.26H9.3zM1.35 9.3h1.26v1.27H1.35zM2.67 9.3h1.26v1.27H2.67zM4 9.3h1.26v1.27H4zM5.32 9.3h1.26v1.27H5.32zM6.64 9.3H7.9v1.27H6.64zM7.97 9.3h1.26v1.27H7.97zM9.3 9.3h1.25v1.27H9.3zM25.16 1.37h1.26v1.26h-1.26zM25.16 2.72h1.26v1.26h-1.26zM25.16 4.03h1.26v1.26h-1.26zM27.81 4.03h1.26v1.26h-1.26zM29.13 4.03h1.26v1.26h-1.26zM30.46 4.03h1.26v1.26h-1.26zM27.81 5.35h1.26V6.6h-1.26zM29.13 5.35h1.26V6.6h-1.26zM30.46 5.35h1.26V6.6h-1.26zM27.81 6.68h1.26v1.26h-1.26zM29.13 6.68h1.26v1.26h-1.26zM30.46 6.68h1.26v1.26h-1.26zM25.16 5.35h1.26V6.6h-1.26zM25.16 6.67h1.26v1.26h-1.26zM25.16 7.99h1.26v1.26h-1.26zM33.1 2.72h1.26v1.26H33.1zM33.1 4.03h1.26v1.26H33.1zM33.1 5.35h1.26V6.6H33.1zM33.1 6.67h1.26v1.26H33.1zM33.1 7.99h1.26v1.26H33.1zM26.5 1.37h1.25v1.26H26.5zM27.81 1.37h1.26v1.26h-1.26zM29.13 1.37h1.26v1.26h-1.26zM30.46 1.37h1.26v1.26h-1.26zM31.78 1.37h1.26v1.26h-1.26zM33.1 1.37h1.26v1.26H33.1zM25.16 9.3h1.26v1.27h-1.26zM26.5 9.3h1.25v1.27H26.5zM27.81 9.3h1.26v1.27h-1.26zM29.13 9.3h1.26v1.27h-1.26zM30.46 9.3h1.26v1.27h-1.26zM31.78 9.3h1.26v1.27h-1.26zM33.1 9.3h1.26v1.27H33.1zM1.35 25.19h1.26v1.26H1.35zM1.35 26.53h1.26v1.26H1.35zM1.35 27.84h1.26v1.26H1.35zM4 27.84h1.26v1.26H4zM5.32 27.84h1.26v1.26H5.32zM6.64 27.84H7.9v1.26H6.64zM4 29.17h1.26v1.26H4zM5.32 29.17h1.26v1.26H5.32zM6.64 29.17H7.9v1.26H6.64zM4 30.49h1.26v1.26H4zM5.32 30.49h1.26v1.26H5.32zM6.64 30.49H7.9v1.26H6.64zM1.35 29.17h1.26v1.26H1.35zM1.35 30.48h1.26v1.26H1.35zM1.35 31.8h1.26v1.26H1.35zM9.3 26.53h1.25v1.26H9.3zM9.3 27.84h1.25v1.26H9.3zM9.3 29.17h1.25v1.26H9.3zM9.3 30.48h1.25v1.26H9.3zM9.3 31.8h1.25v1.26H9.3zM2.67 25.19h1.26v1.26H2.67zM4 25.19h1.26v1.26H4zM5.32 25.19h1.26v1.26H5.32zM6.64 25.19H7.9v1.26H6.64zM7.97 25.19h1.26v1.26H7.97zM9.3 25.19h1.25v1.26H9.3zM1.35 33.12h1.26v1.26H1.35zM2.67 33.12h1.26v1.26H2.67zM4 33.12h1.26v1.26H4zM5.32 33.12h1.26v1.26H5.32zM6.64 33.12H7.9v1.26H6.64zM7.97 33.12h1.26v1.26H7.97zM9.3 33.12h1.25v1.26H9.3z" />
    <path fill="#fff"
      d="M2.67 2.7h1.26v1.27H2.67zM2.67 4.04h1.26V5.3H2.67zM2.67 5.34h1.26V6.6H2.67zM2.67 6.67h1.26v1.26H2.67zM2.67 8h1.26v1.26H2.67zM4 8h1.26v1.26H4zM5.32 8h1.26v1.26H5.32zM6.64 8H7.9v1.26H6.64zM7.97 7.99h1.26v1.26H7.97zM7.97 6.72h1.26v1.26H7.97zM7.97 5.35h1.26V6.6H7.97zM7.97 4.03h1.26v1.26H7.97zM4 2.7h1.26v1.27H4zM5.32 2.7h1.26v1.27H5.32zM6.64 2.7H7.9v1.27H6.64zM7.97 2.72h1.26v1.26H7.97zM26.5 2.72h1.25v1.26H26.5zM26.5 4.03h1.25v1.26H26.5zM26.5 5.34h1.25V6.6H26.5zM26.5 6.68h1.25v1.26H26.5zM27.81 2.7h1.26v1.27h-1.26zM29.13 2.7h1.26v1.27h-1.26zM30.46 2.7h1.26v1.27h-1.26zM31.78 2.7h1.26v1.27h-1.26zM31.78 4.04h1.26V5.3h-1.26zM31.78 5.3h1.26v1.26h-1.26zM31.78 6.68h1.26v1.26h-1.26zM26.5 8h1.25v1.26H26.5zM27.81 7.99h1.26v1.26h-1.26zM29.13 7.99h1.26v1.26h-1.26zM30.46 7.99h1.26v1.26h-1.26zM31.78 7.99h1.26v1.26h-1.26zM2.67 26.5h1.26v1.26H2.67zM2.67 27.85h1.26v1.26H2.67zM2.67 29.17h1.26v1.26H2.67zM2.67 30.49h1.26v1.26H2.67zM4 26.5h1.26v1.26H4zM5.32 26.5h1.26v1.26H5.32zM6.64 26.5H7.9v1.27H6.64zM7.97 26.5h1.26v1.27H7.97zM2.67 31.8h1.26v1.27H2.67zM4 31.8h1.26v1.27H4zM5.32 31.8h1.26v1.27H5.32zM6.64 31.82H7.9v1.26H6.64zM7.97 31.82h1.26v1.26H7.97zM7.97 27.83h1.26v1.26H7.97zM7.97 29.17h1.26v1.26H7.97zM7.97 30.49h1.26v1.26H7.97z" />
  </g>
  <path class="separator" fill="#fff" fill-opacity=".25" fill-rule="evenodd" stroke="#ff3131"
    stroke-dasharray=".064 .064" stroke-dashoffset="0" stroke-linecap="butt" stroke-opacity="1" stroke-width=".064"
    d="M10.61 2.72h1.26v1.26h-1.26zM10.61 4.04h1.26V5.3h-1.26zM10.61 1.39h1.26v1.26h-1.26zM10.61 5.37h1.26v1.26h-1.26zM10.61 6.69h1.26v1.26h-1.26zM10.61 8h1.26v1.27h-1.26zM10.61 9.3h1.26v1.27h-1.26zM10.61 10.64h1.26v1.26h-1.26zM9.3 10.63h1.25v1.26H9.3zM7.97 10.63h1.26v1.26H7.97zM6.64 10.63H7.9v1.26H6.64zM5.32 10.63h1.26v1.26H5.32zM4 10.63h1.26v1.26H4zM2.67 10.63h1.26v1.26H2.67zM1.35 10.63h1.26v1.26H1.35zM23.84 1.37h1.26v1.26h-1.26zM23.84 2.7h1.26v1.27h-1.26zM23.84 4.03h1.26v1.26h-1.26zM23.84 5.35h1.26V6.6h-1.26zM23.84 6.67h1.26v1.26h-1.26zM23.84 8h1.26v1.26h-1.26zM23.84 9.3h1.26v1.27h-1.26zM23.84 10.63h1.26v1.26h-1.26zM25.16 10.63h1.26v1.26h-1.26zM26.5 10.63h1.25v1.26H26.5zM27.81 10.63h1.26v1.26h-1.26zM29.13 10.63h1.26v1.26h-1.26zM30.46 10.63h1.26v1.26h-1.26zM31.78 10.63h1.26v1.26h-1.26zM33.1 10.63h1.26v1.26H33.1zM1.35 23.86h1.26v1.26H1.35zM2.67 23.86h1.26v1.26H2.67zM4 23.86h1.26v1.26H4zM5.32 23.86h1.26v1.26H5.32zM6.64 23.87H7.9v1.26H6.64zM7.97 23.87h1.26v1.26H7.97zM9.3 23.87h1.25v1.26H9.3zM10.61 23.87h1.26v1.26h-1.26zM10.61 25.19h1.26v1.26h-1.26zM10.61 26.5h1.26v1.27h-1.26zM10.61 27.83h1.26v1.26h-1.26zM10.61 29.17h1.26v1.26h-1.26zM10.61 30.48h1.26v1.26h-1.26zM10.61 31.8h1.26v1.26h-1.26zM10.61 33.12h1.26v1.26h-1.26z" />
  <path class="quite-zone" fill="#ff3131" fill-opacity=".25" fill-rule="evenodd" stroke="#ff3131"
    stroke-dasharray=".064 .064" stroke-dashoffset="0" stroke-linecap="butt" stroke-opacity="1" stroke-width=".064"
    d="M.032.051h1.259V1.31H.032zm0 1.323h1.259v1.259H.032zm0 1.323h1.259v1.259H.032zm0 1.33h1.259v1.259H.032zm0 1.33h1.259v1.259H.032zm0 1.323h1.259v1.259H.032zm0 1.323h1.259v1.259H.032zm0 1.309h1.259v1.259H.032zm0 1.323h1.259v1.259H.032zm0 1.323h1.259v1.259H.032zm0 1.323h1.259v1.259H.032zm0 1.322h1.259v1.259H.032zm0 9.261h1.259v1.259H.032zm0 1.323h1.259v1.259H.032zm0 1.321h1.259v1.259H.032zm0 1.32h1.259v1.259H.032zm0 1.338h1.259v1.259H.032zm0 1.312h1.259v1.259H.032zm0 1.327h1.259v1.259H.032zm0 1.326h1.259v1.259H.032zm0-17.205h1.259v1.259H.032zm0 1.323h1.259v1.259H.032zm0 1.324h1.259v1.259H.032zm0 1.324h1.259v1.259H.032zm0 1.321h1.259v1.259H.032zm0 1.326h1.259v1.259H.032zm34.396-21.17h1.259v1.259h-1.259zm0 1.323h1.259v1.259h-1.259zm0 1.33h1.259v1.259h-1.259zm0 1.33h1.259v1.259h-1.259zm0 1.323h1.259v1.259h-1.259zm0 1.323h1.259v1.259h-1.259zm0 1.309h1.259v1.259h-1.259zm0 1.323h1.259v1.259h-1.259zm0 1.323h1.259v1.259h-1.259zm0 1.323h1.259v1.259h-1.259zm0 1.322h1.259v1.259h-1.259zm0 9.261h1.259v1.259h-1.259zm0 1.323h1.259v1.259h-1.259zm0 1.321h1.259v1.259h-1.259zm0 1.32h1.259v1.259h-1.259zm0 1.338h1.259v1.259h-1.259zm0 1.312h1.259v1.259h-1.259zm0 1.327h1.259v1.259h-1.259zm0 1.326h1.259v1.259h-1.259zm0-17.205h1.259v1.259h-1.259zm0 1.323h1.259v1.259h-1.259zm0 1.324h1.259v1.259h-1.259zm0 1.324h1.259v1.259h-1.259zm0 1.321h1.259v1.259h-1.259zm0 1.326h1.259v1.259h-1.259zM1.355.051h1.259V1.31H1.355zm1.323 0h1.259V1.31H2.678zM4.001.042H5.26v1.259H4.001zM5.324.06h1.259v1.259H5.324zM6.647.051h1.259V1.31H6.647zm1.323 0h1.259V1.31H7.97zM9.292.06h1.259v1.259H9.292zm1.323 0h1.259v1.259h-1.259zm13.23-.009h1.259V1.31h-1.259zm1.322 0h1.259V1.31h-1.259zm1.323.004h1.259v1.259H26.49zm1.323 0h1.259v1.259h-1.259zm1.323-.013h1.259v1.259h-1.259zm1.323-.009h1.259v1.259h-1.259zm1.323 0h1.259v1.259h-1.259zm1.323.009h1.259v1.259h-1.259zm1.323 0h1.259v1.259h-1.259zm-22.49.009h1.259V1.31h-1.259zm1.323 0h1.259V1.31h-1.259zm1.323 0h1.259V1.31h-1.259zm1.323 0h1.259V1.31h-1.259zm1.323 0h1.259V1.31H17.23zm1.324 0h1.259V1.31h-1.259zm1.322 0h1.259V1.31h-1.259zm1.323 0h1.259V1.31h-1.259zm1.325 0h1.259V1.31h-1.259zM.032 34.441h1.259V35.7H.032zm1.323 0h1.259V35.7H1.355zm1.323 0h1.259V35.7H2.678zm1.323-.01H5.26v1.259H4.001zm1.323.019h1.259v1.259H5.324zm1.323-.009h1.259V35.7H6.647zm1.323 0h1.259V35.7H7.97zm1.322.009h1.259v1.259H9.292zm1.323 0h1.259v1.259h-1.259zm1.323.01h1.259v1.259h-1.259zm1.323 0h1.259v1.259h-1.259zm1.323 0h1.259v1.259h-1.259zm1.323-.01h1.259v1.259h-1.259zm1.323.019h1.259v1.259H17.23zm1.323-.009h1.259v1.259h-1.259zm1.323 0h1.259v1.259h-1.259zm1.323.009h1.259v1.259h-1.259zm1.323 0h1.259v1.259h-1.259zm1.342 0h1.259v1.259h-1.259zm1.323 0h1.259v1.259h-1.259zm1.323 0h1.259v1.259H26.51zm1.323-.01h1.259v1.259h-1.259zm1.323.019h1.259v1.259h-1.259zm1.323-.009h1.259v1.259h-1.259zm1.323 0h1.259v1.259h-1.259zm1.323.009h1.259v1.259h-1.259zm1.323 0h1.259v1.259h-1.259z" />
  <path class="codeword-light-module" fill="#fff" fill-opacity=".273" fill-rule="evenodd" stroke="#ff3131"
    stroke-dasharray=".064 .064" stroke-dashoffset="0" stroke-linecap="butt" stroke-opacity="1" stroke-width=".064"
    d="M14.584 1.374h1.259v1.259h-1.259zm2.646 0h1.259v1.259H17.23zm0 1.323h1.259v1.259H17.23zM1.355 21.218h1.259v1.259H1.355zm1.323 0h1.259v1.259H2.678zm1.323 0H5.26v1.259H4.001zm3.969 0h1.259v1.259H7.97zm1.322 0h1.259v1.259H9.292zm1.323 0h1.259v1.259h-1.259zm2.646 0h1.259v1.259h-1.259zm3.969 0h1.259v1.259H17.23zm2.646 0h1.259v1.259h-1.259zm2.646 0h1.259v1.259h-1.259zm1.323 0h1.259v1.259h-1.259zm5.291 0h1.259v1.259h-1.259zm3.969 0h1.259v1.259h-1.259zM6.647 22.541h1.259V23.8H6.647zm3.968 0h1.259V23.8h-1.259zm2.646 0h1.259V23.8h-1.259zm1.323 0h1.259V23.8h-1.259zm1.323 0h1.259V23.8h-1.259zm3.969 0h1.259V23.8h-1.259zm1.323 0h1.259V23.8h-1.259zm10.583 0h1.259V23.8h-1.259zm1.323 0h1.259V23.8h-1.259zm-18.521 1.323h1.259v1.259h-1.259zm1.323 0h1.259v1.259h-1.259zm1.323 0h1.259v1.259H17.23zm3.969 0h1.259v1.259h-1.259zm2.646 0h1.259v1.259h-1.259zm1.322 0h1.259v1.259h-1.259zm1.323 0h1.259v1.259H26.49zm2.646 0h1.259v1.259h-1.259zm1.323 0h1.259v1.259h-1.259zm1.323 0h1.259v1.259h-1.259zm1.323 0h1.259v1.259h-1.259zm-19.844 1.323h1.259v1.259h-1.259zm1.323 0h1.259v1.259h-1.259zm1.323 0h1.259v1.259h-1.259zm1.323 0h1.259v1.259H17.23zm1.323 0h1.259v1.259h-1.259zm1.323 0h1.259v1.259h-1.259zm1.323 0h1.259v1.259h-1.259zm2.646 0h1.259v1.259h-1.259zm2.645 0h1.259v1.259H26.49zm2.646 0h1.259v1.259h-1.259zm1.323 0h1.259v1.259h-1.259zm1.323 0h1.259v1.259h-1.259zm1.323 0h1.259v1.259h-1.259zM11.938 26.51h1.259v1.259h-1.259zm2.646 0h1.259v1.259h-1.259zm1.323 0h1.259v1.259h-1.259zm5.292 0h1.259v1.259h-1.259zm2.646 0h1.259v1.259h-1.259zm1.322 0h1.259v1.259h-1.259zm1.323 0h1.259v1.259H26.49zm-7.937 0h1.259v1.259h-1.259zm-5.292 1.323h1.259v1.259h-1.259zm3.969 0h1.259v1.259H17.23zm3.969 0h1.259v1.259h-1.259zm10.583 0h1.259v1.259h-1.259zm-19.844 1.323h1.259v1.259h-1.259zm1.323 0h1.259v1.259h-1.259zm2.646 0h1.259v1.259h-1.259zm2.646 0h1.259v1.259h-1.259zm1.323 0h1.259v1.259h-1.259zm2.646 0h1.259v1.259h-1.259zm5.291 0h1.259v1.259h-1.259zm1.323 0h1.259v1.259h-1.259zm-17.198 1.322h1.259v1.259h-1.259zm2.646 0h1.259v1.259h-1.259zm7.938 0h1.259v1.259h-1.259zm1.323 0h1.259v1.259h-1.259zm2.645 0h1.259v1.259H26.49zm1.323 0h1.259v1.259h-1.259zm2.646 0h1.259v1.259h-1.259zm2.646 0h1.259v1.259h-1.259zm0 1.327h1.259v1.259h-1.259zm-21.167-.004h1.259v1.259h-1.259zm1.323 0h1.259v1.259h-1.259zm1.323 0h1.259v1.259h-1.259zm-1.323 1.323h1.259v1.259h-1.259zm2.646 0h1.259v1.259h-1.259zm1.323-1.323h1.259v1.259H17.23zm2.646 0h1.259v1.259h-1.259zm0 1.323h1.259v1.259h-1.259zm2.646-1.323h1.259v1.259h-1.259zm0 1.323h1.259v1.259h-1.259zm2.645-1.323h1.259v1.259h-1.259zm-1.322 1.323h1.259v1.259h-1.259zm1.322 0h1.259v1.259h-1.259zm1.323 0h1.259v1.259H26.49zm1.323 0h1.259v1.259h-1.259zm1.323 0h1.259v1.259h-1.259zM18.554 2.697h1.259v1.259h-1.259zm1.323.01h1.259v1.259h-1.259zm1.324 0h1.259v1.259h-1.259zm-1.324-1.333h1.259v1.259h-1.259zm-7.939 1.323h1.259v1.259h-1.259zm0 1.323h1.259v1.259h-1.259zm1.323 0h1.259v1.259h-1.259zm1.323 0h1.259v1.259h-1.259zm1.323 0h1.259v1.259h-1.259zm1.323 0h1.259v1.259H17.23zm1.323 0h1.259v1.259h-1.259zm1.323 0h1.259v1.259h-1.259zm2.646 0h1.259v1.259h-1.259zm-9.261 1.323h1.259v1.259h-1.259zm1.323 0h1.259v1.259h-1.259zm1.323 0h1.259v1.259h-1.259zm1.323 0h1.259v1.259H17.23zm1.323 0h1.259v1.259h-1.259zm1.323 0h1.259v1.259h-1.259zm-5.292 1.323h1.259v1.259h-1.259zm1.323 0h1.259v1.259h-1.259zm1.323 0h1.259v1.259H17.23zm1.323 0h1.259v1.259h-1.259zm-2.646 1.323h1.259v1.259h-1.259zm1.323 0h1.259v1.259H17.23zm1.323 0h1.259v1.259h-1.259zm1.323 0h1.259v1.259h-1.259zm1.323 0h1.259v1.259h-1.259zm1.323 0h1.259v1.259h-1.259zm-9.261 1.323h1.259v1.259h-1.259zm2.646 0h1.259v1.259h-1.259zm2.646 0h1.259v1.259h-1.259zm2.646 0h1.259v1.259h-1.259zm-7.938 1.323h1.259v1.259h-1.259zm1.323 0h1.259v1.259h-1.259zm1.323 0h1.259v1.259h-1.259zm1.323 0h1.259v1.259H17.23zm2.646 0h1.259v1.259h-1.259zm2.646 0h1.259v1.259h-1.259zM2.678 11.958h1.259v1.259H2.678zm1.323 0H5.26v1.259H4.001zm1.323 0h1.259v1.259H5.324zm2.646 0h1.259v1.259H7.97zm5.291 0h1.259v1.259h-1.259zm2.646 0h1.259v1.259h-1.259zm1.323 0h1.259v1.259H17.23zm2.646 0h1.259v1.259h-1.259zm1.323 0h1.259v1.259h-1.259zm1.323 0h1.259v1.259h-1.259zm7.937 0h1.259v1.259h-1.259zm1.323 0h1.259v1.259h-1.259zM2.678 13.281h1.259v1.259H2.678zm5.292 0h1.259v1.259H7.97zm1.322 0h1.259v1.259H9.292zm1.323 0h1.259v1.259h-1.259zm14.552 0h1.259v1.259h-1.259zm1.323 0h1.259v1.259H26.49zm3.969 0h1.259v1.259h-1.259zm2.646 0h1.259v1.259h-1.259zM2.678 14.603h1.259v1.259H2.678zm1.323 0H5.26v1.259H4.001zm2.646 0h1.259v1.259H6.647zm5.291 0h1.259v1.259h-1.259zm1.323 0h1.259v1.259h-1.259zm1.323 0h1.259v1.259h-1.259zm3.969 0h1.259v1.259h-1.259zm1.323 0h1.259v1.259h-1.259zm5.291 0h1.259v1.259h-1.259zm2.646 0h1.259v1.259h-1.259zm3.969 0h1.259v1.259h-1.259zm1.323 0h1.259v1.259h-1.259zM4.001 15.926H5.26v1.259H4.001zm3.969 0h1.259v1.259H7.97zm1.322 0h1.259v1.259H9.292zm6.615 0h1.259v1.259h-1.259zm2.646 0h1.259v1.259h-1.259zm2.646 0h1.259v1.259h-1.259zm1.323 0h1.259v1.259h-1.259zm3.968 0h1.259v1.259H26.49zm1.323 0h1.259v1.259h-1.259zm1.323 0h1.259v1.259h-1.259zm3.969 0h1.259v1.259h-1.259zm-31.75 1.323h1.259v1.259H1.355zm1.323 0h1.259v1.259H2.678zm1.323 0H5.26v1.259H4.001zm1.323 0h1.259v1.259H5.324zm1.323 0h1.259v1.259H6.647zm3.968 0h1.259v1.259h-1.259zm1.323 0h1.259v1.259h-1.259zm1.323 0h1.259v1.259h-1.259zm2.646 0h1.259v1.259h-1.259zm1.323 0h1.259v1.259H17.23zm5.292 0h1.259v1.259h-1.259zm3.968 0h1.259v1.259H26.49zm1.323 0h1.259v1.259h-1.259zM2.678 18.572h1.259v1.259H2.678zm2.646 0h1.259v1.259H5.324zm2.646 0h1.259v1.259H7.97zm1.322 0h1.259v1.259H9.292zm1.323 0h1.259v1.259h-1.259zm1.323 0h1.259v1.259h-1.259zm1.323 0h1.259v1.259h-1.259zm2.646 0h1.259v1.259h-1.259zm2.646 0h1.259v1.259h-1.259zm1.323 0h1.259v1.259h-1.259zm2.646 0h1.259v1.259h-1.259zm1.323 0h1.259v1.259h-1.259zm1.322 0h1.259v1.259h-1.259zm1.323 0h1.259v1.259H26.49zm2.646 0h1.259v1.259h-1.259zm1.323 0h1.259v1.259h-1.259zm2.646 0h1.259v1.259h-1.259zm-31.75 1.323h1.259v1.259H1.355zm1.323 0h1.259v1.259H2.678zm1.323 0H5.26v1.259H4.001zm1.323 0h1.259v1.259H5.324zm1.323 0h1.259v1.259H6.647zm1.323 0h1.259v1.259H7.97zm5.291 0h1.259v1.259h-1.259zm10.584 0h1.259v1.259h-1.259zm1.322 0h1.259v1.259h-1.259zm6.615 0h1.259v1.259h-1.259zm1.323 0h1.259v1.259h-1.259z"
    display="inline" />
  <path class="codeword-dark-module" fill="#000" fill-opacity=".25" fill-rule="evenodd" stroke="#ff3131"
    stroke-dasharray=".064 .064" stroke-dashoffset="0" stroke-linecap="butt" stroke-opacity="1" stroke-width=".064"
    d="M11.938 1.374h1.259v1.259h-1.259zm1.323 0h1.259v1.259h-1.259zm0 1.325h1.259v1.259h-1.259zm-1.323 2.654h1.259v1.259h-1.259zm0 1.313h1.259v1.259h-1.259zm0 1.326h1.259v1.259h-1.259zm0 1.326h1.259v1.259h-1.259zm0 1.317h1.259v1.259h-1.259zm3.969-9.261h1.259v1.259h-1.259zm2.647 0h1.259v1.259h-1.259zm2.645 0h1.259v1.259h-1.259zm1.325 0h1.259v1.259h-1.259zm-7.94 1.323h1.259v1.259h-1.259zm1.323 0h1.259v1.259h-1.259zm6.615.01h1.259v1.259h-1.259zm0 2.643h1.259v1.259h-1.259zm-1.323-1.32h1.259v1.259h-1.259zm0 1.32h1.259v1.259h-1.259zm-1.323 1.323h1.259v1.259h-1.259zm1.323 0h1.259v1.259h-1.259zm1.323 0h1.259v1.259h-1.259zm-10.584 5.286h1.259v1.259h-1.259zm-1.323 0h1.259v1.259h-1.259zm-1.323 0h1.259v1.259H9.292zm-2.645-.001h1.259v1.259H6.647zm-5.292 0h1.259v1.259H1.355zm0 1.323h1.259v1.259H1.355zm0 1.322h1.259v1.259H1.355zm0 1.323h1.259v1.259H1.355zm0 2.646h1.259v1.259H1.355zm0 3.972h1.259v1.259H1.355zm1.323 0h1.259v1.259H2.678zm1.321 0h1.259v1.259H3.999zm1.325-.003h1.259V23.8H5.324zm2.646 0h1.259V23.8H7.97zm1.32 0h1.259V23.8H9.29zm-2.641-1.307h1.259v1.259H6.649zm-1.321 0h1.259v1.259H5.328zm-1.329-2.662h1.259v1.259H3.999zm2.648 0h1.259v1.259H6.647zm1.323-1.323h1.259v1.259H7.97zm1.321 0h1.259v1.259H9.291zm-2.644-1.323h1.259v1.259H6.647zm-1.323 0h1.259v1.259H5.324zm-2.646 0h1.259v1.259H2.678zm1.323-2.645H5.26v1.259H4.001zm1.323 1.322h1.259v1.259H5.324zm0-1.322h1.259v1.259H5.324zm2.646 1.323h1.259v1.259H7.97zm1.322 0h1.259v1.259H9.292zm1.323 0h1.259v1.259h-1.259zm-.001 1.322h1.259v1.259h-1.259zm1.324-2.643h1.259v1.259h-1.259zm1.323-6.607h1.259v1.259h-1.259zm1.323 1.316h1.259v1.259h-1.259zm-1.323 0h1.259v1.259h-1.259zm1.323 1.326h1.259v1.259h-1.259zm0 2.64h1.259v1.259h-1.259zm-1.323 1.325h1.259v1.259h-1.259zm1.323-.002h1.259v1.259h-1.259zm2.646-3.969h1.259v1.259H17.23zm2.646 0h1.259v1.259h-1.259zm2.646 0h1.259v1.259h-1.259zm-1.323 1.323h1.259v1.259h-1.259zm-2.646 0h1.259v1.259h-1.259zm0 1.323h1.259v1.259h-1.259zm0 1.323h1.259v1.259h-1.259zm-1.323 0h1.259v1.259H17.23zm-1.323 0h1.259v1.259h-1.259zm3.969-.007h1.259v1.259h-1.259zm1.323.007h1.259v1.259h-1.259zm1.323-.011h1.259v1.259h-1.259zm1.323.011h1.259v1.259h-1.259zm0-1.323h1.259v1.259h-1.259zm9.26 0h1.259v1.259h-1.259zm-1.323 1.323h1.259v1.259h-1.259zm-1.323 1.322h1.259v1.259h-1.259zm-1.323 0h1.259v1.259h-1.259zm0-1.322h1.259v1.259h-1.259zm0-1.323h1.259v1.259h-1.259zm2.646 3.968h1.259v1.259h-1.259zm1.323 1.323h1.259v1.259h-1.259zm-7.938-5.291h1.259v1.259h-1.259zm1.323 0h1.259v1.259H26.49zm1.323 0h1.259v1.259h-1.259zm-11.906 2.645h1.259v1.259h-1.259zm1.323 0h1.259v1.259H17.23zm3.969 0h1.259v1.259h-1.259zm6.614-1.322h1.259v1.259h-1.259zm-3.968 1.322h1.259v1.259h-1.259zm-1.323 0h1.259v1.259h-1.259zm3.968 0h1.259v1.259H26.49zm-1.323 1.323h1.259v1.259h-1.259zm5.292 0h1.259v1.259h-1.259zm-6.614 0h1.259v1.259h-1.259zm-3.969 0h1.259v1.259h-1.259zm-1.323 1.323h1.259v1.259h-1.259zm-1.323-1.323h1.259v1.259H17.23zm2.646 1.323h1.259v1.259h-1.259zm1.323 0h1.259v1.259h-1.259zm0 1.323h1.259v1.259h-1.259zm2.646-1.323h1.259v1.259h-1.259zm1.322 0h1.259v1.259h-1.259zm-2.645 2.646h1.259v1.259h-1.259zm-1.323 0h1.259v1.259h-1.259zm-1.323 0h1.259v1.259h-1.259zm9.26-2.646h1.259v1.259h-1.259zm1.323 0h1.259v1.259h-1.259zm1.323 0h1.259v1.259h-1.259zm-3.969 1.323h1.259v1.259h-1.259zm3.969 0h1.259v1.259h-1.259zm-1.323 1.323h1.259v1.259h-1.259zm-1.323 0h1.259v1.259h-1.259zm-1.323 0h1.259v1.259h-1.259zm-1.323 0h1.259v1.259H26.49zm-1.323 1.323h1.259v1.259h-1.259zm-1.322 1.323h1.259V23.8h-1.259zm1.322 0h1.259V23.8h-1.259zm-3.968-1.323h1.259v1.259h-1.259zm1.323 1.323h1.259V23.8h-1.259zm7.937-1.323h1.259v1.259h-1.259zm1.323 0h1.259v1.259h-1.259zm-9.26 2.646h1.259v1.259h-1.259zm3.968-1.323h1.259V23.8H26.49zm1.323 0h1.259V23.8h-1.259zm2.646 0h1.259V23.8h-1.259zm-1.323 0h1.259V23.8h-1.259zm-2.646-1.323h1.259v1.259H26.49zm1.323 0h1.259v1.259h-1.259zm-5.291 3.969h1.259v1.259h-1.259zm0 1.323h1.259v1.259h-1.259zm0 1.323h1.259v1.259h-1.259zm2.645-2.646h1.259v1.259h-1.259zm2.646-1.323h1.259v1.259h-1.259zm0 1.323h1.259v1.259h-1.259zm0 1.323h1.259v1.259h-1.259zm0 1.323h1.259v1.259h-1.259zm-1.323 0h1.259v1.259H26.49zm-1.323 0h1.259v1.259h-1.259zm-1.322 0h1.259v1.259h-1.259zm0 1.323h1.259v1.259h-1.259zm1.322 0h1.259v1.259h-1.259zm1.323 0h1.259v1.259H26.49zm-1.323 1.322h1.259v1.259h-1.259zm-1.322 1.323h1.259v1.259h-1.259zm2.645 0h1.259v1.259H26.49zm1.323 0h1.259v1.259h-1.259zm1.323 0h1.259v1.259h-1.259zm0-1.323h1.259v1.259h-1.259zm2.646 0h1.259v1.259h-1.259zm0-1.312h1.259v1.259h-1.259zm1.323.031h1.259v1.259h-1.259zm-2.646-.031h1.259v1.259h-1.259zm-1.323-1.313h1.259v1.259h-1.259zm0-1.343h1.259v1.259h-1.259zm3.969 0h1.259v1.259h-1.259zm0 1.343h1.259v1.259h-1.259zm-2.646-1.343h1.259v1.259h-1.259zm1.323 0h1.259v1.259h-1.259zm-1.323 1.323h1.259v1.259h-1.259zm0 3.989h1.259v1.259h-1.259zm1.323 0h1.259v1.259h-1.259zm0 1.302h1.259v1.259h-1.259zm1.323 0h1.259v1.259h-1.259zm-2.646 0h1.259v1.259h-1.259zm-18.521.011h1.259v1.259h-1.259zm2.646-.011h1.259v1.259h-1.259zm2.646 0h1.259v1.259H17.23zm1.323 0h1.259v1.259h-1.259zm-5.292-2.646h1.259v1.259h-1.259zm2.646 1.323h1.259v1.259h-1.259zm0-1.323h1.259v1.259h-1.259zm-1.323-1.322h1.259v1.259h-1.259zm0-1.323h1.259v1.259h-1.259zm-1.323-1.323h1.259v1.259h-1.259zm-1.323 1.333h1.259v1.259h-1.259zm5.292 2.635h1.259v1.259H17.23zm1.323 0h1.259v1.259h-1.259zm0 1.323h1.259v1.259h-1.259zm1.323-1.323h1.259v1.259h-1.259zm1.323 0h1.259v1.259h-1.259zm0 1.323h1.259v1.259h-1.259zm0 1.323h1.259v1.259h-1.259zm0-3.968h1.259v1.259h-1.259zm-3.969 0h1.259v1.259H17.23zm0-2.646h1.259v1.259H17.23zm-1.323 1.323h1.259v1.259h-1.259zm2.646 0h1.259v1.259h-1.259zm1.323 0h1.259v1.259h-1.259zm0-1.323h1.259v1.259h-1.259zm-7.938-1.323h1.259v1.259h-1.259zm1.323-1.318h1.259v1.259h-1.259zm-1.323-.005h1.259v1.259h-1.259zm0-1.323h1.259V23.8h-1.259zm0-1.323h1.259v1.259h-1.259zm0-1.323h1.259v1.259h-1.259zm-1.323 0h1.259v1.259h-1.259zm-1.323 0h1.259v1.259H9.292zm2.646-3.969h1.259v1.259h-1.259zm1.323 0h1.259v1.259h-1.259zm1.323 0h1.259v1.259h-1.259zm0 1.323h1.259v1.259h-1.259zm0 1.323h1.259v1.259h-1.259zm2.646 0h1.259v1.259H17.23zm-1.323 1.323h1.259v1.259h-1.259zm-1.323 0h1.259v1.259h-1.259zm2.646 0h1.259v1.259H17.23zm1.323 0h1.259v1.259h-1.259zm-3.969 1.323h1.259v1.259h-1.259zm1.323 0h1.259v1.259h-1.259zm1.323 1.323h1.259V23.8H17.23zm1.323 0h1.259V23.8h-1.259zm0-1.323h1.259v1.259h-1.259zm0 2.646h1.259v1.259h-1.259zm1.323 0h1.259v1.259h-1.259zM6.647 13.281h1.259v1.259H6.647z" />
  <path class="data-bit-zero" fill="#ff3131"
    d="M11.26 1.6c-.16 0-.38.07-.38.4 0 .25.13.39.38.39s.38-.14.38-.39c0-.22-.1-.4-.38-.4zm0 .09c.16 0 .23.1.23.3 0 .22-.07.32-.23.32s-.24-.1-.24-.31c0-.2.08-.31.24-.31zM3.3 2.91c-.17 0-.39.06-.39.4 0 .25.13.38.38.38s.39-.13.39-.38c0-.22-.1-.4-.39-.4zm0 .08c.15 0 .23.1.23.31 0 .22-.08.32-.24.32-.15 0-.23-.1-.23-.32 0-.2.08-.3.23-.3zM4.62 2.91c-.17 0-.39.06-.39.4 0 .25.14.38.39.38.24 0 .38-.13.38-.38 0-.22-.1-.4-.38-.4zm0 .08c.15 0 .23.1.23.31 0 .22-.08.32-.24.32-.15 0-.23-.1-.23-.32 0-.2.08-.3.24-.3zM11.24 2.93c-.16 0-.38.06-.38.4 0 .25.13.39.38.39s.39-.14.39-.39c0-.22-.1-.4-.39-.4zm0 .09c.16 0 .24.1.24.3 0 .22-.08.32-.24.32-.15 0-.23-.1-.23-.31s.08-.31.23-.31zM12.57 2.93c-.17 0-.39.06-.39.4 0 .25.14.39.39.39s.38-.14.38-.39c0-.22-.1-.4-.38-.4zm0 .09c.15 0 .23.1.23.3 0 .22-.07.32-.24.32-.15 0-.23-.1-.23-.31s.08-.31.24-.31zM11.23 4.26c-.16 0-.38.06-.38.4 0 .25.13.39.38.39s.38-.14.38-.39c0-.22-.09-.4-.38-.4zm0 .09c.16 0 .24.1.24.3 0 .22-.08.32-.24.32-.16 0-.23-.1-.23-.31s.07-.31.23-.31zM12.57 4.27c-.17 0-.39.06-.39.39 0 .25.14.39.39.39s.38-.14.38-.38c0-.23-.1-.4-.38-.4zm0 .08c.15 0 .23.1.23.3 0 .22-.07.32-.24.32-.15 0-.23-.1-.23-.31 0-.2.08-.3.24-.3zM13.9 4.27c-.17 0-.39.06-.39.39 0 .25.14.39.39.39.24 0 .38-.14.38-.38 0-.23-.1-.4-.38-.4zm0 .08c.15 0 .23.1.23.3 0 .22-.07.32-.24.32-.15 0-.23-.1-.23-.31 0-.2.08-.3.24-.3zM15.23 4.27c-.16 0-.38.06-.38.39 0 .25.13.39.38.39s.39-.14.39-.38c0-.23-.1-.4-.39-.4zm0 .08c.16 0 .24.1.24.3 0 .22-.08.32-.24.32-.15 0-.23-.1-.23-.31 0-.2.08-.3.23-.3zM16.53 4.27c-.17 0-.38.06-.38.39 0 .25.13.39.38.39s.38-.14.38-.38c0-.23-.1-.4-.38-.4zm0 .08c.15 0 .23.1.23.3 0 .22-.07.32-.23.32s-.24-.1-.24-.31c0-.2.08-.3.24-.3zM17.89 2.93c-.17 0-.39.06-.39.4 0 .25.14.39.39.39.24 0 .38-.14.38-.39 0-.22-.1-.4-.38-.4zm0 .09c.15 0 .23.1.23.3 0 .22-.07.32-.24.32-.15 0-.23-.1-.23-.31s.08-.31.24-.31zM17.85 1.62c-.17 0-.39.06-.39.4 0 .25.13.38.39.38.24 0 .38-.13.38-.38 0-.22-.1-.4-.38-.4zm0 .08c.15 0 .23.1.23.31 0 .22-.08.32-.24.32-.15 0-.23-.1-.23-.32 0-.2.08-.3.24-.3zM15.23 1.6c-.17 0-.39.06-.39.4 0 .25.14.38.39.38s.38-.13.38-.38c0-.22-.1-.4-.38-.4zm0 .08c.15 0 .23.1.23.31 0 .22-.07.32-.24.32-.15 0-.23-.1-.23-.32 0-.2.08-.3.24-.3zM20.52 1.62c-.16 0-.38.06-.38.39 0 .25.13.39.38.39s.38-.14.38-.39c0-.22-.09-.4-.38-.4zm0 .08c.16 0 .24.1.24.3 0 .22-.08.32-.24.32-.16 0-.23-.1-.23-.31 0-.2.07-.31.23-.31zM19.18 2.93c-.17 0-.39.06-.39.39 0 .25.14.39.39.39.24 0 .38-.14.38-.38 0-.23-.1-.4-.38-.4zm0 .08c.15 0 .23.1.23.3 0 .22-.07.32-.24.32-.15 0-.23-.1-.23-.31 0-.2.08-.3.24-.3zM20.5 2.91c-.17 0-.4.06-.4.4 0 .25.14.38.4.38.24 0 .37-.13.37-.38 0-.22-.09-.4-.38-.4zm0 .08c.15 0 .23.1.23.31 0 .22-.08.32-.24.32-.16 0-.23-.1-.23-.32 0-.2.07-.3.23-.3zM21.84 2.93c-.17 0-.39.06-.39.39 0 .26.14.4.39.4.24 0 .38-.14.38-.4 0-.21-.1-.4-.38-.4zm0 .08c.15 0 .23.1.23.3 0 .22-.07.32-.24.32-.15 0-.23-.1-.23-.3 0-.22.08-.32.24-.32zM24.48 1.62c-.17 0-.39.06-.39.39 0 .25.13.39.39.39.24 0 .38-.14.38-.39 0-.22-.1-.4-.38-.4zm0 .08c.15 0 .23.1.23.3 0 .22-.08.32-.24.32-.15 0-.23-.1-.23-.31 0-.2.08-.31.24-.31zM24.47 2.94c-.17 0-.39.06-.39.4 0 .25.13.39.39.39.24 0 .38-.14.38-.39 0-.22-.1-.4-.38-.4zm0 .09c.15 0 .23.1.23.3 0 .22-.08.32-.24.32-.15 0-.23-.1-.23-.31s.08-.31.24-.31zM23.15 4.25c-.16 0-.38.05-.38.39 0 .25.13.39.38.39s.38-.14.38-.39c0-.22-.09-.4-.38-.4zm0 .08c.16 0 .24.1.24.3 0 .22-.08.32-.24.32-.16 0-.23-.1-.23-.31 0-.2.07-.31.23-.31zM24.46 4.23c-.16 0-.38.06-.38.4 0 .25.13.39.38.39s.38-.14.38-.39c0-.22-.09-.4-.38-.4zm0 .09c.16 0 .23.1.23.3 0 .22-.07.32-.23.32s-.23-.1-.23-.31.07-.31.23-.31zM24.47 5.58c-.16 0-.38.06-.38.4 0 .25.13.39.38.39s.39-.14.39-.39c0-.22-.1-.4-.39-.4zm0 .09c.16 0 .24.1.24.3 0 .22-.08.32-.24.32-.15 0-.23-.1-.23-.31s.08-.31.23-.31zM20.5 4.26c-.16 0-.38.06-.38.4 0 .25.13.39.39.39.24 0 .38-.14.38-.39 0-.22-.1-.4-.38-.4zm0 .09c.16 0 .24.1.24.3 0 .22-.08.32-.24.32-.15 0-.23-.1-.23-.32 0-.2.08-.3.24-.3zM19.18 4.3c-.17 0-.39.06-.39.4 0 .25.14.38.39.38.24 0 .38-.13.38-.38 0-.22-.1-.4-.38-.4zm0 .09c.15 0 .23.1.23.3 0 .22-.07.32-.24.32-.15 0-.23-.1-.23-.32 0-.2.08-.3.24-.3zM17.85 4.26c-.16 0-.38.06-.38.39 0 .25.13.39.38.39s.38-.14.38-.38c0-.23-.1-.4-.38-.4zm0 .08c.16 0 .23.1.23.3 0 .22-.07.32-.23.32s-.24-.1-.24-.31c0-.2.08-.3.24-.3zM11.24 5.6c-.16 0-.38.06-.38.4 0 .25.13.39.38.39s.39-.14.39-.39c0-.22-.1-.4-.39-.4zm0 .09c.16 0 .24.1.24.3 0 .22-.08.32-.24.32-.15 0-.23-.1-.23-.31s.08-.31.23-.31zM13.9 5.57c-.16 0-.38.06-.38.4 0 .25.13.39.38.39s.39-.14.39-.39c0-.22-.1-.4-.39-.4zm0 .09c.16 0 .24.1.24.3 0 .22-.08.32-.24.32-.15 0-.23-.1-.23-.31s.08-.31.23-.31zM15.21 5.58c-.16 0-.38.06-.38.4 0 .25.13.38.38.38s.39-.13.39-.38c0-.22-.1-.4-.39-.4zm0 .08c.16 0 .24.1.24.31s-.08.32-.24.32c-.15 0-.23-.1-.23-.32 0-.2.08-.3.23-.3zM16.53 5.58c-.17 0-.38.06-.38.4 0 .25.13.38.38.38s.38-.13.38-.38c0-.22-.1-.4-.38-.4zm0 .08c.15 0 .23.1.23.31s-.07.32-.23.32-.24-.1-.24-.32c0-.2.08-.3.24-.3zM17.85 5.6c-.16 0-.38.06-.38.4 0 .25.13.39.38.39s.38-.14.38-.39c0-.22-.1-.4-.38-.4zm0 .09c.16 0 .23.1.23.3 0 .22-.07.32-.23.32s-.24-.1-.24-.31c0-.2.08-.31.24-.31zM19.2 5.58c-.17 0-.4.06-.4.4 0 .25.14.38.4.38.24 0 .37-.13.37-.38 0-.22-.09-.4-.38-.4zm0 .08c.15 0 .23.1.23.31s-.08.32-.24.32c-.16 0-.23-.1-.23-.32 0-.2.07-.3.23-.3zM20.5 5.58c-.16 0-.38.06-.38.4 0 .25.13.39.39.39.24 0 .38-.14.38-.39 0-.22-.1-.4-.38-.4zm0 .09c.16 0 .24.1.24.3 0 .22-.08.32-.24.32-.15 0-.23-.1-.23-.31s.08-.31.24-.31zM11.24 6.92c-.16 0-.38.06-.38.4 0 .25.13.38.38.38s.39-.13.39-.38c0-.22-.1-.4-.39-.4zm0 .08c.16 0 .24.1.24.31s-.08.31-.24.31c-.15 0-.23-.1-.23-.3 0-.21.08-.32.23-.32zM11.24 8.24c-.16 0-.38.06-.38.39 0 .25.13.39.38.39s.39-.14.39-.38c0-.22-.1-.4-.39-.4zm0 .08c.16 0 .24.1.24.3 0 .22-.08.32-.24.32-.15 0-.23-.1-.23-.31 0-.2.08-.3.23-.3zM11.24 9.57c-.16 0-.38.05-.38.39 0 .25.13.39.38.39s.39-.14.39-.39c0-.22-.1-.4-.39-.4zm0 .08c.16 0 .24.1.24.3 0 .22-.08.32-.24.32-.15 0-.23-.1-.23-.31 0-.2.08-.31.23-.31zM11.24 10.89c-.16 0-.38.06-.38.39 0 .26.13.4.38.4s.39-.14.39-.4c0-.21-.1-.4-.39-.4zm0 .08c.16 0 .24.1.24.3 0 .22-.08.32-.24.32-.15 0-.23-.1-.23-.3 0-.22.08-.32.23-.32zM8.6 10.87c-.16 0-.38.06-.38.4 0 .25.13.38.38.38s.38-.13.38-.38c0-.22-.09-.4-.38-.4zm0 .09c.16 0 .23.1.23.3 0 .22-.07.32-.23.32s-.24-.1-.24-.32c0-.2.08-.3.24-.3zM9.92 10.87c-.16 0-.38.06-.38.4 0 .25.13.39.38.39s.38-.14.38-.39c0-.22-.09-.4-.38-.4zm0 .09c.16 0 .24.1.24.3 0 .22-.08.32-.24.32-.15 0-.23-.1-.23-.31s.08-.31.23-.31zM7.28 10.87c-.17 0-.39.06-.39.4 0 .25.14.38.39.38.24 0 .38-.13.38-.38 0-.22-.1-.4-.38-.4zm0 .09c.15 0 .23.1.23.3 0 .22-.08.32-.24.32-.15 0-.23-.1-.23-.32 0-.2.08-.3.24-.3zM5.95 10.87c-.16 0-.38.06-.38.4 0 .25.13.38.38.38s.38-.13.38-.38c0-.22-.09-.4-.38-.4zm0 .09c.16 0 .24.1.24.3 0 .22-.08.32-.24.32-.16 0-.23-.1-.23-.32 0-.2.07-.3.23-.3zM1.98 10.87c-.16 0-.38.06-.38.4 0 .25.13.38.38.38s.38-.13.38-.38c0-.22-.09-.4-.38-.4zm0 .09c.16 0 .24.1.24.3 0 .22-.08.32-.24.32-.16 0-.23-.1-.23-.32 0-.2.07-.3.23-.3zM3.32 10.87c-.16 0-.38.06-.38.39 0 .25.13.39.38.39s.38-.14.38-.39c0-.22-.09-.4-.38-.4zm0 .08c.16 0 .24.1.24.3 0 .22-.08.32-.24.32-.16 0-.23-.1-.23-.31 0-.2.07-.31.23-.31zM4.63 10.87c-.16 0-.38.06-.38.4 0 .25.13.38.38.38s.39-.13.39-.38c0-.22-.1-.4-.39-.4zm0 .09c.16 0 .24.1.24.3 0 .22-.08.32-.24.32-.15 0-.23-.1-.23-.32 0-.2.08-.3.23-.3zM3.3 12.2c-.16 0-.38.05-.38.39 0 .25.14.39.39.39.24 0 .38-.14.38-.39 0-.22-.1-.4-.38-.4zm0 .08c.16 0 .24.1.24.3 0 .22-.07.32-.24.32-.15 0-.23-.1-.23-.31s.08-.31.24-.31zM4.63 12.2c-.16 0-.38.05-.38.39 0 .25.13.39.38.39s.38-.14.38-.39c0-.22-.09-.4-.38-.4zm0 .08c.16 0 .23.1.23.3 0 .22-.07.32-.23.32s-.23-.1-.23-.31.07-.31.23-.31zM5.95 12.17c-.16 0-.38.06-.38.4 0 .25.13.38.38.38s.39-.13.39-.38c0-.22-.1-.4-.39-.4zm0 .08c.16 0 .24.1.24.3 0 .22-.08.32-.24.32-.15 0-.23-.1-.23-.3 0-.22.08-.32.23-.32zM8.6 12.18c-.16 0-.38.06-.38.4 0 .25.13.39.38.39s.38-.14.38-.39c0-.22-.09-.4-.38-.4zm0 .09c.16 0 .23.1.23.3 0 .22-.07.32-.23.32s-.24-.1-.24-.31.08-.31.24-.31zM8.6 13.53c-.16 0-.38.06-.38.39 0 .26.13.4.38.4s.38-.14.38-.4c0-.21-.09-.4-.38-.4zm0 .08c.16 0 .23.1.23.3 0 .22-.07.32-.23.32s-.24-.1-.24-.3c0-.22.08-.32.24-.32zM9.92 13.53c-.17 0-.39.06-.39.39 0 .26.13.4.39.4.24 0 .38-.14.38-.4 0-.21-.1-.4-.38-.4zm0 .08c.15 0 .23.1.23.3 0 .22-.08.32-.24.32-.15 0-.23-.1-.23-.3 0-.22.08-.32.24-.32zM11.25 13.53c-.16 0-.38.06-.38.39 0 .26.13.4.38.4s.39-.14.39-.4c0-.21-.1-.4-.39-.4zm0 .08c.16 0 .24.1.24.3 0 .22-.08.32-.24.32-.15 0-.23-.1-.23-.3 0-.22.08-.32.23-.32zM3.32 13.51c-.16 0-.38.06-.38.4 0 .25.13.39.38.39s.38-.14.38-.39c0-.22-.09-.4-.38-.4zm0 .09c.16 0 .24.1.24.3 0 .22-.08.32-.24.32-.16 0-.23-.1-.23-.31s.07-.31.23-.31zM3.32 14.85c-.16 0-.38.06-.38.4 0 .25.13.38.38.38s.38-.13.38-.38c0-.22-.09-.4-.38-.4zm0 .08c.16 0 .24.1.24.31 0 .22-.08.32-.24.32-.16 0-.23-.1-.23-.32 0-.2.07-.3.23-.3zM4.63 14.84c-.16 0-.38.06-.38.4 0 .25.13.38.38.38s.38-.13.38-.38c0-.22-.09-.4-.38-.4zm0 .08c.16 0 .23.1.23.31 0 .22-.07.32-.23.32s-.23-.1-.23-.32c0-.2.07-.3.23-.3zM4.63 16.19c-.16 0-.38.06-.38.39 0 .26.13.4.38.4s.38-.15.38-.4c0-.21-.09-.4-.38-.4zm0 .08c.16 0 .23.1.23.3 0 .22-.07.32-.23.32s-.23-.1-.23-.3c0-.22.07-.32.23-.32zM7.27 14.85c-.17 0-.39.06-.39.4 0 .25.13.38.39.38.24 0 .38-.13.38-.38 0-.22-.1-.4-.38-.4zm0 .08c.15 0 .23.1.23.31 0 .22-.08.32-.24.32-.15 0-.23-.1-.23-.32 0-.2.08-.3.24-.3zM8.6 16.19c-.16 0-.38.06-.38.39 0 .26.13.4.38.4s.38-.15.38-.4c0-.21-.09-.4-.38-.4zm0 .08c.16 0 .23.1.23.3 0 .22-.07.32-.23.32s-.24-.1-.24-.3c0-.22.08-.32.24-.32zM9.92 16.17c-.17 0-.39.06-.39.4 0 .25.13.39.39.39.24 0 .38-.14.38-.39 0-.22-.1-.4-.38-.4zm0 .09c.15 0 .23.1.23.3 0 .22-.08.32-.24.32-.15 0-.23-.1-.23-.31s.08-.31.24-.31zM2 17.48c-.17 0-.38.06-.38.4 0 .25.13.38.38.38s.38-.13.38-.38c0-.22-.1-.4-.38-.4zm0 .08c.16 0 .23.1.23.31 0 .22-.07.32-.23.32s-.24-.1-.24-.32c0-.2.08-.3.24-.3zM3.3 17.48c-.16 0-.38.06-.38.39 0 .25.14.39.39.39.24 0 .38-.14.38-.39 0-.22-.1-.4-.38-.4zm0 .08c.16 0 .24.1.24.3 0 .22-.07.32-.24.32-.15 0-.23-.1-.23-.31 0-.2.08-.31.24-.31zM4.64 17.48c-.16 0-.38.06-.38.4 0 .25.13.38.38.38s.39-.13.39-.38c0-.22-.1-.4-.39-.4zm0 .08c.16 0 .24.1.24.31 0 .22-.08.32-.24.32-.15 0-.23-.1-.23-.32 0-.2.08-.3.23-.3zM5.94 17.48c-.17 0-.39.06-.39.4 0 .25.14.38.39.38.24 0 .38-.13.38-.38 0-.22-.1-.4-.38-.4zm0 .08c.15 0 .23.1.23.31 0 .22-.07.32-.24.32-.15 0-.23-.1-.23-.32 0-.2.08-.3.24-.3zM7.27 17.51c-.17 0-.39.06-.39.4 0 .25.13.39.39.39.24 0 .38-.14.38-.39 0-.22-.1-.4-.38-.4zm0 .09c.15 0 .23.1.23.3 0 .22-.08.32-.24.32-.15 0-.23-.1-.23-.32 0-.2.08-.3.24-.3zM12.58 14.87c-.16 0-.38.06-.38.39 0 .25.13.39.38.39s.38-.14.38-.39c0-.22-.09-.4-.38-.4zm0 .08c.16 0 .24.1.24.3 0 .22-.08.32-.24.32-.15 0-.23-.1-.23-.31 0-.2.07-.31.23-.31zM13.9 14.84c-.16 0-.38.05-.38.39 0 .25.13.39.38.39s.39-.14.39-.39c0-.22-.1-.4-.39-.4zm0 .08c.16 0 .24.1.24.3 0 .22-.08.32-.24.32-.15 0-.23-.1-.23-.31s.08-.31.23-.31zM15.22 14.85c-.17 0-.38.06-.38.4 0 .25.13.38.38.38s.38-.13.38-.38c0-.22-.1-.4-.38-.4zm0 .08c.16 0 .23.1.23.31 0 .22-.07.32-.23.32s-.24-.1-.24-.32c0-.2.08-.3.24-.3zM19.17 14.85c-.17 0-.38.06-.38.4 0 .25.13.38.38.38s.38-.13.38-.38c0-.22-.1-.4-.38-.4zm0 .08c.16 0 .23.1.23.31 0 .22-.07.32-.23.32s-.24-.1-.24-.32c0-.2.08-.3.24-.3zM20.52 14.85c-.17 0-.39.06-.39.4 0 .25.14.38.39.38.24 0 .38-.13.38-.38 0-.22-.1-.4-.38-.4zm0 .08c.15 0 .23.1.23.31 0 .22-.07.32-.24.32-.15 0-.23-.1-.23-.32 0-.2.08-.3.24-.3zM13.9 9.55c-.17 0-.4.06-.4.4 0 .25.14.38.4.38.24 0 .37-.13.37-.38 0-.22-.09-.4-.38-.4zm0 .08c.15 0 .23.1.23.31 0 .22-.08.32-.24.32-.16 0-.23-.1-.23-.32 0-.2.07-.3.23-.3zM13.9 10.9c-.17 0-.4.06-.4.39 0 .26.14.4.4.4.24 0 .37-.14.37-.4 0-.21-.09-.4-.38-.4zm0 .08c.15 0 .23.1.23.3 0 .22-.08.32-.24.32-.16 0-.23-.1-.23-.3 0-.22.07-.32.23-.32zM13.9 12.2c-.17 0-.4.06-.4.4 0 .25.14.39.4.39.24 0 .37-.14.37-.39 0-.22-.09-.4-.38-.4zm0 .09c.15 0 .23.1.23.3 0 .22-.08.32-.24.32-.16 0-.23-.1-.23-.31s.07-.31.23-.31zM15.21 10.86c-.16 0-.38.06-.38.4 0 .25.13.38.38.38s.39-.13.39-.38c0-.22-.1-.4-.39-.4zm0 .09c.16 0 .24.1.24.3 0 .22-.08.32-.24.32-.15 0-.23-.1-.23-.32 0-.2.08-.3.23-.3zM16.52 10.86c-.16 0-.38.06-.38.4 0 .25.13.38.38.38s.38-.13.38-.38c0-.22-.09-.4-.38-.4zm0 .09c.16 0 .23.1.23.3 0 .22-.07.32-.23.32s-.23-.1-.23-.32c0-.2.07-.3.23-.3zM17.86 10.86c-.16 0-.38.06-.38.4 0 .25.13.38.38.38s.38-.13.38-.38c0-.22-.09-.4-.38-.4zm0 .09c.16 0 .23.1.23.3 0 .22-.07.32-.23.32s-.23-.1-.23-.32c0-.2.07-.3.23-.3zM16.54 9.54c-.17 0-.39.06-.39.4 0 .25.14.38.39.38.24 0 .38-.13.38-.38 0-.22-.1-.4-.38-.4zm0 .08c.15 0 .23.1.23.3 0 .22-.07.32-.24.32-.15 0-.23-.1-.23-.3 0-.22.08-.32.24-.32zM16.52 12.17c-.16 0-.38.06-.38.4 0 .25.13.38.38.38s.39-.13.39-.38c0-.22-.1-.4-.39-.4zm0 .08c.16 0 .24.1.24.31 0 .22-.08.32-.24.32-.15 0-.23-.1-.23-.32 0-.2.08-.3.23-.3zM17.85 12.17c-.17 0-.39.06-.39.4 0 .25.13.38.39.38.24 0 .38-.13.38-.38 0-.22-.1-.4-.38-.4zm0 .08c.15 0 .23.1.23.31 0 .22-.08.32-.24.32-.15 0-.23-.1-.23-.32 0-.2.08-.3.24-.3zM15.2 6.88c-.16 0-.38.06-.38.4 0 .25.13.38.38.38s.38-.13.38-.38c0-.22-.09-.4-.38-.4zm0 .08c.16 0 .23.1.23.3 0 .22-.07.32-.23.32s-.23-.1-.23-.3c0-.22.07-.32.23-.32zM16.52 6.88c-.16 0-.38.06-.38.4 0 .25.13.38.38.38s.39-.13.39-.38c0-.22-.1-.4-.39-.4zm0 .08c.16 0 .24.1.24.3 0 .22-.08.32-.24.32-.15 0-.23-.1-.23-.3 0-.22.08-.32.23-.32zM17.85 6.88c-.17 0-.39.06-.39.4 0 .25.13.38.39.38.24 0 .38-.13.38-.38 0-.22-.1-.4-.38-.4zm0 .08c.15 0 .23.1.23.3 0 .22-.08.32-.24.32-.15 0-.23-.1-.23-.3 0-.22.08-.32.24-.32zM19.17 6.88c-.17 0-.38.06-.38.4 0 .25.13.38.38.38s.38-.13.38-.38c0-.22-.1-.4-.38-.4zm0 .08c.16 0 .23.1.23.3 0 .22-.07.32-.23.32s-.24-.1-.24-.3c0-.22.08-.32.24-.32zM16.52 8.2c-.16 0-.38.06-.38.4 0 .25.13.38.38.38s.39-.13.39-.38c0-.22-.1-.4-.39-.4zm0 .09c.16 0 .24.1.24.3 0 .22-.08.32-.24.32-.15 0-.23-.1-.23-.32 0-.2.08-.3.23-.3zM17.85 8.2c-.17 0-.39.06-.39.4 0 .25.13.38.39.38.24 0 .38-.13.38-.38 0-.22-.1-.4-.38-.4zm0 .09c.15 0 .23.1.23.3 0 .22-.08.32-.24.32-.15 0-.23-.1-.23-.32 0-.2.08-.3.24-.3zM19.17 8.2c-.17 0-.38.06-.38.4 0 .25.13.38.38.38s.38-.13.38-.38c0-.22-.1-.4-.38-.4zm0 .09c.16 0 .23.1.23.3 0 .22-.07.32-.23.32s-.24-.1-.24-.32c0-.2.08-.3.24-.3zM20.5 8.24c-.17 0-.4.06-.4.39 0 .25.14.39.4.39.24 0 .37-.14.37-.39 0-.22-.09-.4-.38-.4zm0 .08c.15 0 .23.1.23.3 0 .22-.08.32-.24.32-.16 0-.23-.1-.23-.31 0-.2.07-.31.23-.31zM21.81 8.2c-.16 0-.38.06-.38.4 0 .25.13.38.38.38s.39-.13.39-.38c0-.22-.1-.4-.39-.4zm0 .09c.16 0 .24.1.24.3 0 .22-.08.32-.24.32-.15 0-.23-.1-.23-.32 0-.2.08-.3.23-.3zM24.49 6.9c-.17 0-.39.06-.39.39 0 .26.14.4.39.4s.38-.15.38-.4c0-.21-.1-.4-.38-.4zm0 .08c.15 0 .23.1.23.3 0 .22-.07.32-.24.32-.15 0-.23-.1-.23-.3 0-.22.08-.32.24-.32zM23.14 8.2c-.17 0-.39.06-.39.4 0 .25.14.38.39.38.24 0 .38-.13.38-.38 0-.22-.1-.4-.38-.4zm0 .09c.15 0 .23.1.23.3 0 .22-.07.32-.24.32-.15 0-.23-.1-.23-.32 0-.2.08-.3.24-.3zM24.46 8.2c-.16 0-.38.06-.38.4 0 .25.13.38.38.38s.38-.13.38-.38c0-.22-.09-.4-.38-.4zm0 .09c.16 0 .23.1.23.3 0 .22-.07.32-.23.32s-.23-.1-.23-.32c0-.2.07-.3.23-.3zM24.46 9.53c-.16 0-.38.05-.38.39 0 .25.13.39.38.39s.38-.14.38-.39c0-.22-.09-.4-.38-.4zm0 .08c.16 0 .23.1.23.3 0 .22-.07.32-.23.32s-.23-.1-.23-.31.07-.31.23-.31zM21.81 9.53c-.16 0-.38.05-.38.39 0 .25.13.39.38.39s.39-.14.39-.39c0-.22-.1-.4-.39-.4zm0 .08c.16 0 .24.1.24.3 0 .22-.08.32-.24.32-.15 0-.23-.1-.23-.31s.08-.31.23-.31zM23.14 10.85c-.17 0-.39.06-.39.39 0 .26.14.4.39.4.24 0 .38-.14.38-.4 0-.21-.1-.4-.38-.4zm0 .08c.15 0 .23.1.23.3 0 .22-.07.32-.24.32-.15 0-.23-.1-.23-.3 0-.22.08-.32.24-.32zM24.46 10.85c-.16 0-.38.06-.38.39 0 .26.13.4.38.4s.38-.14.38-.4c0-.21-.09-.4-.38-.4zm0 .08c.16 0 .23.1.23.3 0 .22-.07.32-.23.32s-.23-.1-.23-.3c0-.22.07-.32.23-.32zM25.78 10.85c-.16 0-.38.06-.38.39 0 .26.13.4.38.4s.39-.14.39-.4c0-.21-.1-.4-.39-.4zm0 .08c.16 0 .24.1.24.3 0 .22-.08.32-.24.32-.15 0-.23-.1-.23-.3 0-.22.08-.32.23-.32zM27.1 10.85c-.16 0-.38.06-.38.39 0 .26.13.4.39.4.24 0 .38-.14.38-.4 0-.21-.1-.4-.38-.4zm0 .08c.16 0 .24.1.24.3 0 .22-.08.32-.24.32-.15 0-.23-.1-.23-.3 0-.22.08-.32.24-.32zM28.43 10.85c-.16 0-.38.06-.38.39 0 .26.13.4.38.4s.38-.14.38-.4c0-.21-.1-.4-.38-.4zm0 .08c.16 0 .23.1.23.3 0 .22-.07.32-.23.32s-.24-.1-.24-.3c0-.22.08-.32.24-.32zM29.75 10.85c-.16 0-.38.06-.38.39 0 .26.13.4.38.4s.38-.14.38-.4c0-.21-.09-.4-.38-.4zm0 .08c.16 0 .24.1.24.3 0 .22-.08.32-.24.32-.15 0-.23-.1-.23-.3 0-.22.07-.32.23-.32zM31.07 10.85c-.16 0-.38.06-.38.39 0 .26.13.4.38.4s.39-.14.39-.4c0-.21-.1-.4-.39-.4zm0 .08c.16 0 .24.1.24.3 0 .22-.08.32-.24.32-.15 0-.23-.1-.23-.3 0-.22.08-.32.23-.32zM32.4 10.85c-.17 0-.39.06-.39.39 0 .26.14.4.39.4s.38-.14.38-.4c0-.21-.1-.4-.38-.4zm0 .08c.15 0 .23.1.23.3 0 .22-.07.32-.24.32-.15 0-.23-.1-.23-.3 0-.22.08-.32.24-.32zM33.72 10.85c-.16 0-.38.06-.38.39 0 .26.13.4.38.4s.38-.14.38-.4c0-.21-.09-.4-.38-.4zm0 .08c.16 0 .24.1.24.3 0 .22-.08.32-.24.32-.16 0-.23-.1-.23-.3 0-.22.07-.32.23-.32zM31.07 12.17c-.16 0-.38.06-.38.4 0 .25.13.38.38.38s.39-.13.39-.38c0-.22-.1-.4-.39-.4zm0 .08c.16 0 .24.1.24.31 0 .22-.08.32-.24.32-.15 0-.23-.1-.23-.32 0-.2.08-.3.23-.3zM32.4 12.17c-.17 0-.39.06-.39.4 0 .25.14.38.39.38s.38-.13.38-.38c0-.22-.1-.4-.38-.4zm0 .08c.15 0 .23.1.23.31 0 .22-.07.32-.24.32-.15 0-.23-.1-.23-.32 0-.2.08-.3.24-.3zM33.72 13.5c-.16 0-.38.05-.38.39 0 .25.13.39.38.39s.38-.14.38-.39c0-.22-.09-.4-.38-.4zm0 .08c.16 0 .24.1.24.3 0 .22-.08.32-.24.32-.16 0-.23-.1-.23-.31s.07-.31.23-.31zM31.07 13.5c-.16 0-.38.05-.38.39 0 .25.13.39.38.39s.39-.14.39-.39c0-.22-.1-.4-.39-.4zm0 .08c.16 0 .24.1.24.3 0 .22-.08.32-.24.32-.15 0-.23-.1-.23-.31s.08-.31.23-.31zM27.1 13.5c-.16 0-.38.05-.38.39 0 .25.13.39.39.39.24 0 .38-.14.38-.39 0-.22-.1-.4-.38-.4zm0 .08c.16 0 .24.1.24.3 0 .22-.08.32-.24.32-.15 0-.23-.1-.23-.31s.08-.31.24-.31zM28.43 14.82c-.16 0-.38.06-.38.39 0 .25.13.39.38.39s.38-.14.38-.39c0-.22-.1-.4-.38-.4zm0 .08c.16 0 .23.1.23.3 0 .22-.07.32-.23.32s-.24-.1-.24-.31c0-.2.08-.31.24-.31zM32.4 14.82c-.17 0-.39.06-.39.39 0 .25.14.39.39.39s.38-.14.38-.39c0-.22-.1-.4-.38-.4zm0 .08c.15 0 .23.1.23.3 0 .22-.07.32-.24.32-.15 0-.23-.1-.23-.31 0-.2.08-.31.24-.31zM33.72 14.82c-.16 0-.38.06-.38.39 0 .25.13.39.38.39s.38-.14.38-.39c0-.22-.09-.4-.38-.4zm0 .08c.16 0 .24.1.24.3 0 .22-.08.32-.24.32-.16 0-.23-.1-.23-.31 0-.2.07-.31.23-.31zM19.2 9.57c-.17 0-.39.06-.39.4 0 .25.14.39.39.39.24 0 .38-.14.38-.39 0-.22-.1-.4-.38-.4zm0 .09c.15 0 .23.1.23.3 0 .22-.08.32-.24.32-.15 0-.23-.1-.23-.31s.08-.31.24-.31zM20.5 10.85c-.17 0-.4.06-.4.39 0 .26.14.4.4.4.24 0 .37-.14.37-.4 0-.21-.09-.4-.38-.4zm0 .08c.15 0 .23.1.23.3 0 .22-.08.32-.24.32-.16 0-.23-.1-.23-.3 0-.22.07-.32.23-.32zM20.5 12.17c-.17 0-.4.06-.4.4 0 .25.14.38.4.38.24 0 .37-.13.37-.38 0-.22-.09-.4-.38-.4zm0 .08c.15 0 .23.1.23.31 0 .22-.08.32-.24.32-.16 0-.23-.1-.23-.32 0-.2.07-.3.23-.3zM21.81 12.17c-.16 0-.38.06-.38.4 0 .25.13.38.38.38s.39-.13.39-.38c0-.22-.1-.4-.39-.4zm0 .08c.16 0 .24.1.24.31 0 .22-.08.32-.24.32-.15 0-.23-.1-.23-.32 0-.2.08-.3.23-.3zM23.14 12.17c-.17 0-.39.06-.39.4 0 .25.14.38.39.38.24 0 .38-.13.38-.38 0-.22-.1-.4-.38-.4zm0 .08c.15 0 .23.1.23.31 0 .22-.07.32-.24.32-.15 0-.23-.1-.23-.32 0-.2.08-.3.24-.3zM25.78 13.52c-.16 0-.38.06-.38.4 0 .25.13.39.38.39s.39-.14.39-.39c0-.22-.1-.4-.39-.4zm0 .09c.16 0 .24.1.24.3 0 .22-.08.32-.24.32-.15 0-.23-.1-.23-.31s.08-.31.23-.31zM25.84 14.85c-.17 0-.39.06-.39.4 0 .25.14.38.39.38.24 0 .38-.13.38-.38 0-.22-.1-.4-.38-.4zm0 .08c.15 0 .23.1.23.31 0 .22-.07.32-.24.32-.15 0-.23-.1-.23-.32 0-.2.08-.3.24-.3zM27.1 16.14c-.16 0-.38.06-.38.4 0 .25.13.38.39.38.24 0 .38-.13.38-.38 0-.22-.1-.4-.38-.4zm0 .08c.16 0 .24.1.24.3 0 .22-.08.32-.24.32-.15 0-.23-.1-.23-.3 0-.22.08-.32.24-.32zM28.43 16.14c-.16 0-.38.06-.38.4 0 .25.13.38.38.38s.38-.13.38-.38c0-.22-.1-.4-.38-.4zm0 .08c.16 0 .23.1.23.3 0 .22-.07.32-.23.32s-.24-.1-.24-.3c0-.22.08-.32.24-.32zM23.14 16.14c-.17 0-.39.06-.39.4 0 .25.14.38.39.38.24 0 .38-.13.38-.38 0-.22-.1-.4-.38-.4zm0 .08c.15 0 .23.1.23.3 0 .22-.07.32-.24.32-.15 0-.23-.1-.23-.3 0-.22.08-.32.24-.32zM21.81 16.14c-.16 0-.38.06-.38.4 0 .25.13.38.38.38s.39-.13.39-.38c0-.22-.1-.4-.39-.4zm0 .08c.16 0 .24.1.24.3 0 .22-.08.32-.24.32-.15 0-.23-.1-.23-.3 0-.22.08-.32.23-.32zM29.75 16.14c-.16 0-.38.06-.38.4 0 .25.13.38.38.38s.38-.13.38-.38c0-.22-.09-.4-.38-.4zm0 .08c.16 0 .24.1.24.3 0 .22-.08.32-.24.32-.15 0-.23-.1-.23-.3 0-.22.07-.32.23-.32zM33.72 16.14c-.16 0-.38.06-.38.4 0 .25.13.38.38.38s.38-.13.38-.38c0-.22-.09-.4-.38-.4zm0 .08c.16 0 .24.1.24.3 0 .22-.08.32-.24.32-.16 0-.23-.1-.23-.3 0-.22.07-.32.23-.32zM16.52 16.14c-.16 0-.38.06-.38.4 0 .25.13.38.38.38s.39-.13.39-.38c0-.22-.1-.4-.39-.4zm0 .08c.16 0 .24.1.24.3 0 .22-.08.32-.24.32-.15 0-.23-.1-.23-.3 0-.22.08-.32.23-.32zM19.17 16.14c-.17 0-.38.06-.38.4 0 .25.13.38.38.38s.38-.13.38-.38c0-.22-.1-.4-.38-.4zm0 .08c.16 0 .23.1.23.3 0 .22-.07.32-.23.32s-.24-.1-.24-.3c0-.22.08-.32.24-.32zM11.23 17.46c-.16 0-.38.06-.38.4 0 .25.13.39.38.39s.38-.14.38-.39c0-.22-.09-.4-.38-.4zm0 .09c.16 0 .24.1.24.3 0 .22-.08.32-.24.32-.16 0-.23-.1-.23-.31s.07-.31.23-.31zM12.55 17.46c-.16 0-.38.06-.38.4 0 .25.13.39.38.39s.39-.14.39-.39c0-.22-.1-.4-.39-.4zm0 .09c.16 0 .24.1.24.3 0 .22-.08.32-.24.32-.15 0-.23-.1-.23-.31s.08-.31.23-.31zM13.88 17.46c-.17 0-.39.06-.39.4 0 .25.14.39.39.39.24 0 .38-.14.38-.39 0-.22-.1-.4-.38-.4zm0 .09c.15 0 .23.1.23.3 0 .22-.07.32-.24.32-.15 0-.23-.1-.23-.31s.08-.31.24-.31zM16.52 17.46c-.16 0-.38.06-.38.4 0 .25.13.39.38.39s.39-.14.39-.39c0-.22-.1-.4-.39-.4zm0 .09c.16 0 .24.1.24.3 0 .22-.08.32-.24.32-.15 0-.23-.1-.23-.31s.08-.31.23-.31zM17.9 17.46c-.17 0-.39.06-.39.4 0 .25.13.39.38.39s.39-.14.39-.39c0-.22-.1-.4-.39-.4zm0 .09c.15 0 .23.1.23.3 0 .22-.08.32-.24.32-.15 0-.23-.1-.23-.31s.08-.31.23-.31zM23.14 17.46c-.17 0-.39.06-.39.4 0 .25.14.39.39.39.24 0 .38-.14.38-.39 0-.22-.1-.4-.38-.4zm0 .09c.15 0 .23.1.23.3 0 .22-.07.32-.24.32-.15 0-.23-.1-.23-.31s.08-.31.24-.31zM27.1 17.46c-.16 0-.38.06-.38.4 0 .25.13.39.39.39.24 0 .38-.14.38-.39 0-.22-.1-.4-.38-.4zm0 .09c.16 0 .24.1.24.3 0 .22-.08.32-.24.32-.15 0-.23-.1-.23-.31s.08-.31.24-.31zM28.48 17.51c-.16 0-.38.06-.38.4 0 .25.13.38.38.38s.39-.13.39-.38c0-.22-.1-.4-.39-.4zm0 .08c.16 0 .24.1.24.31 0 .22-.08.32-.24.32-.15 0-.23-.1-.23-.32 0-.2.08-.3.23-.3zM3.3 18.79c-.17 0-.39.05-.39.39 0 .25.13.39.38.39s.39-.14.39-.39c0-.22-.1-.4-.39-.4zm0 .08c.15 0 .23.1.23.3 0 .22-.08.32-.24.32-.15 0-.23-.1-.23-.31 0-.2.08-.31.23-.31zM5.94 18.79c-.16 0-.38.05-.38.39 0 .25.13.39.38.39s.38-.14.38-.39c0-.22-.09-.4-.38-.4zm0 .08c.16 0 .23.1.23.3 0 .22-.07.32-.23.32s-.23-.1-.23-.31c0-.2.07-.31.23-.31zM8.59 18.79c-.17 0-.39.05-.39.39 0 .25.13.39.39.39.24 0 .38-.14.38-.39 0-.22-.1-.4-.38-.4zm0 .08c.15 0 .23.1.23.3 0 .22-.08.32-.24.32-.15 0-.23-.1-.23-.31 0-.2.08-.31.24-.31zM9.9 18.79c-.16 0-.38.05-.38.39 0 .25.14.39.39.39s.38-.14.38-.39c0-.22-.1-.4-.38-.4zm0 .08c.16 0 .24.1.24.3 0 .22-.07.32-.24.32-.15 0-.23-.1-.23-.31 0-.2.08-.31.24-.31zM11.23 18.79c-.16 0-.38.05-.38.39 0 .25.13.39.38.39s.38-.14.38-.39c0-.22-.09-.4-.38-.4zm0 .08c.16 0 .24.1.24.3 0 .22-.08.32-.24.32-.16 0-.23-.1-.23-.31 0-.2.07-.31.23-.31zM1.97 20.1c-.16 0-.38.07-.38.4 0 .26.13.4.38.4s.38-.14.38-.4c0-.21-.09-.4-.38-.4zm0 .1c.16 0 .24.1.24.3 0 .21-.08.31-.24.31-.16 0-.23-.1-.23-.3 0-.22.07-.32.23-.32zM3.3 20.1c-.17 0-.39.07-.39.4 0 .26.13.4.38.4s.39-.14.39-.4c0-.21-.1-.4-.39-.4zm0 .1c.15 0 .23.1.23.3 0 .21-.08.31-.24.31-.15 0-.23-.1-.23-.3 0-.22.08-.32.23-.32zM4.62 20.1c-.17 0-.39.07-.39.4 0 .26.14.4.39.4.24 0 .38-.14.38-.4 0-.21-.1-.4-.38-.4zm0 .1c.15 0 .23.1.23.3 0 .21-.08.31-.24.31-.15 0-.23-.1-.23-.3 0-.22.08-.32.24-.32zM5.94 20.1c-.16 0-.38.07-.38.4 0 .26.13.4.38.4s.38-.14.38-.4c0-.21-.09-.4-.38-.4zm0 .1c.16 0 .23.1.23.3 0 .21-.07.31-.23.31s-.23-.1-.23-.3c0-.22.07-.32.23-.32zM7.26 20.1c-.16 0-.38.07-.38.4 0 .26.13.4.38.4s.39-.14.39-.4c0-.21-.1-.4-.39-.4zm0 .1c.16 0 .24.1.24.3 0 .21-.08.31-.24.31-.15 0-.23-.1-.23-.3 0-.22.08-.32.23-.32zM8.59 20.1c-.17 0-.39.07-.39.4 0 .26.13.4.39.4.24 0 .38-.14.38-.4 0-.21-.1-.4-.38-.4zm0 .1c.15 0 .23.1.23.3 0 .21-.08.31-.24.31-.15 0-.23-.1-.23-.3 0-.22.08-.32.24-.32zM1.97 21.43c-.16 0-.38.06-.38.4 0 .25.13.38.38.38s.38-.13.38-.38c0-.22-.09-.4-.38-.4zm0 .08c.16 0 .24.1.24.31 0 .22-.08.32-.24.32-.16 0-.23-.1-.23-.32 0-.2.07-.3.23-.3zM4.62 21.43c-.17 0-.39.06-.39.4 0 .25.14.38.39.38.24 0 .38-.13.38-.38 0-.22-.1-.4-.38-.4zm0 .08c.15 0 .23.1.23.31 0 .22-.08.32-.24.32-.15 0-.23-.1-.23-.32 0-.2.08-.3.24-.3zM3.3 21.43c-.17 0-.39.06-.39.4 0 .25.13.38.38.38s.39-.13.39-.38c0-.22-.1-.4-.39-.4zm0 .08c.15 0 .23.1.23.31 0 .22-.08.32-.24.32-.15 0-.23-.1-.23-.32 0-.2.08-.3.23-.3zM8.59 21.43c-.17 0-.39.06-.39.4 0 .25.13.38.39.38.24 0 .38-.13.38-.38 0-.22-.1-.4-.38-.4zm0 .08c.15 0 .23.1.23.31 0 .22-.08.32-.24.32-.15 0-.23-.1-.23-.32 0-.2.08-.3.24-.3zM9.99 21.43c-.16 0-.38.06-.38.4 0 .25.13.38.38.38s.38-.13.38-.38c0-.22-.09-.4-.38-.4zm0 .08c.16 0 .23.1.23.31 0 .22-.07.32-.23.32s-.23-.1-.23-.32c0-.2.07-.3.23-.3zM11.26 21.48c-.16 0-.38.06-.38.4 0 .25.13.38.38.38s.38-.13.38-.38c0-.22-.1-.4-.38-.4zm0 .08c.16 0 .23.1.23.3 0 .22-.07.32-.23.32s-.24-.1-.24-.3c0-.22.08-.32.24-.32zM12.55 18.79c-.16 0-.38.05-.38.39 0 .25.13.39.38.39s.39-.14.39-.39c0-.22-.1-.4-.39-.4zm0 .08c.16 0 .24.1.24.3 0 .22-.08.32-.24.32-.15 0-.23-.1-.23-.31 0-.2.08-.31.23-.31zM13.88 18.79c-.17 0-.39.05-.39.39 0 .25.14.39.39.39.24 0 .38-.14.38-.39 0-.22-.1-.4-.38-.4zm0 .08c.15 0 .23.1.23.3 0 .22-.07.32-.24.32-.15 0-.23-.1-.23-.31 0-.2.08-.31.24-.31zM13.88 20.1c-.17 0-.39.07-.39.4 0 .26.14.4.39.4.24 0 .38-.14.38-.4 0-.21-.1-.4-.38-.4zm0 .1c.15 0 .23.1.23.3 0 .21-.07.31-.24.31-.15 0-.23-.1-.23-.3 0-.22.08-.32.24-.32zM13.88 21.43c-.17 0-.39.06-.39.4 0 .25.14.38.39.38.24 0 .38-.13.38-.38 0-.22-.1-.4-.38-.4zm0 .08c.15 0 .23.1.23.31 0 .22-.07.32-.24.32-.15 0-.23-.1-.23-.32 0-.2.08-.3.24-.3zM11.23 22.75c-.16 0-.38.06-.38.4 0 .25.13.39.38.39s.38-.14.38-.39c0-.22-.09-.4-.38-.4zm0 .09c.16 0 .24.1.24.3 0 .22-.08.32-.24.32-.16 0-.23-.1-.23-.31s.07-.31.23-.31zM13.88 22.75c-.17 0-.39.06-.39.4 0 .25.14.39.39.39.24 0 .38-.14.38-.39 0-.22-.1-.4-.38-.4zm0 .09c.15 0 .23.1.23.3 0 .22-.07.32-.24.32-.15 0-.23-.1-.23-.31s.08-.31.24-.31zM15.2 22.75c-.16 0-.38.06-.38.4 0 .25.13.39.38.39s.38-.14.38-.39c0-.22-.09-.4-.38-.4zm0 .09c.16 0 .23.1.23.3 0 .22-.07.32-.23.32s-.23-.1-.23-.31.07-.31.23-.31zM16.52 22.75c-.16 0-.38.06-.38.4 0 .25.13.39.38.39s.39-.14.39-.39c0-.22-.1-.4-.39-.4zm0 .09c.16 0 .24.1.24.3 0 .22-.08.32-.24.32-.15 0-.23-.1-.23-.31s.08-.31.23-.31zM17.85 21.43c-.17 0-.39.06-.39.4 0 .25.13.38.39.38.24 0 .38-.13.38-.38 0-.22-.1-.4-.38-.4zm0 .08c.15 0 .23.1.23.31 0 .22-.08.32-.24.32-.15 0-.23-.1-.23-.32 0-.2.08-.3.24-.3zM20.5 21.43c-.17 0-.4.06-.4.4 0 .25.14.38.4.38.24 0 .37-.13.37-.38 0-.22-.09-.4-.38-.4zm0 .08c.15 0 .23.1.23.31 0 .22-.08.32-.24.32-.16 0-.23-.1-.23-.32 0-.2.07-.3.23-.3zM19.17 18.79c-.17 0-.38.05-.38.39 0 .25.13.39.38.39s.38-.14.38-.39c0-.22-.1-.4-.38-.4zm0 .08c.16 0 .23.1.23.3 0 .22-.07.32-.23.32s-.24-.1-.24-.31c0-.2.08-.31.24-.31zM20.5 18.79c-.17 0-.4.05-.4.39 0 .25.14.39.4.39.24 0 .37-.14.37-.39 0-.22-.09-.4-.38-.4zm0 .08c.15 0 .23.1.23.3 0 .22-.08.32-.24.32-.16 0-.23-.1-.23-.31 0-.2.07-.31.23-.31zM16.52 18.79c-.16 0-.38.05-.38.39 0 .25.13.39.38.39s.39-.14.39-.39c0-.22-.1-.4-.39-.4zm0 .08c.16 0 .24.1.24.3 0 .22-.08.32-.24.32-.15 0-.23-.1-.23-.31 0-.2.08-.31.23-.31zM7.3 22.78c-.16 0-.38.06-.38.4 0 .25.13.39.38.39s.38-.14.38-.39c0-.22-.09-.4-.38-.4zm0 .09c.16 0 .24.1.24.3 0 .22-.08.32-.24.32-.16 0-.23-.1-.23-.31s.07-.31.23-.31zM1.97 24.08c-.16 0-.38.06-.38.39 0 .25.13.39.38.39s.38-.14.38-.39c0-.22-.09-.4-.38-.4zm0 .08c.16 0 .24.1.24.3 0 .22-.08.32-.24.32-.16 0-.23-.1-.23-.31 0-.2.07-.31.23-.31zM3.3 24.08c-.17 0-.39.06-.39.39 0 .25.13.39.38.39s.39-.14.39-.39c0-.22-.1-.4-.39-.4zm0 .08c.15 0 .23.1.23.3 0 .22-.08.32-.24.32-.15 0-.23-.1-.23-.31 0-.2.08-.31.23-.31zM4.62 24.08c-.17 0-.39.06-.39.39 0 .25.14.39.39.39.24 0 .38-.14.38-.39 0-.22-.1-.4-.38-.4zm0 .08c.15 0 .23.1.23.3 0 .22-.08.32-.24.32-.15 0-.23-.1-.23-.31 0-.2.08-.31.24-.31zM5.94 24.08c-.16 0-.38.06-.38.39 0 .25.13.39.38.39s.38-.14.38-.39c0-.22-.09-.4-.38-.4zm0 .08c.16 0 .23.1.23.3 0 .22-.07.32-.23.32s-.23-.1-.23-.31c0-.2.07-.31.23-.31zM7.26 24.08c-.16 0-.38.06-.38.39 0 .25.13.39.38.39s.39-.14.39-.39c0-.22-.1-.4-.39-.4zm0 .08c.16 0 .24.1.24.3 0 .22-.08.32-.24.32-.15 0-.23-.1-.23-.31 0-.2.08-.31.23-.31zM8.59 24.08c-.17 0-.39.06-.39.39 0 .25.13.39.39.39.24 0 .38-.14.38-.39 0-.22-.1-.4-.38-.4zm0 .08c.15 0 .23.1.23.3 0 .22-.08.32-.24.32-.15 0-.23-.1-.23-.31 0-.2.08-.31.24-.31zM9.9 24.08c-.16 0-.38.06-.38.39 0 .25.14.39.39.39s.38-.14.38-.39c0-.22-.1-.4-.38-.4zm0 .08c.16 0 .24.1.24.3 0 .22-.07.32-.24.32-.15 0-.23-.1-.23-.31 0-.2.08-.31.24-.31zM11.23 24.08c-.16 0-.38.06-.38.39 0 .25.13.39.38.39s.38-.14.38-.39c0-.22-.09-.4-.38-.4zm0 .08c.16 0 .24.1.24.3 0 .22-.08.32-.24.32-.16 0-.23-.1-.23-.31 0-.2.07-.31.23-.31zM11.23 25.4c-.16 0-.38.06-.38.4 0 .25.13.38.38.38s.38-.13.38-.38c0-.22-.09-.4-.38-.4zm0 .08c.16 0 .24.1.24.31s-.08.31-.24.31c-.16 0-.23-.1-.23-.3 0-.21.07-.32.23-.32zM11.23 26.72c-.16 0-.38.06-.38.4 0 .25.13.39.38.39s.38-.14.38-.39c0-.22-.09-.4-.38-.4zm0 .09c.16 0 .24.1.24.3 0 .22-.08.32-.24.32-.16 0-.23-.1-.23-.31s.07-.31.23-.31zM11.23 28.05c-.16 0-.38.05-.38.39 0 .25.13.39.38.39s.38-.14.38-.39c0-.22-.09-.4-.38-.4zm0 .08c.16 0 .24.1.24.3 0 .22-.08.32-.24.32-.16 0-.23-.1-.23-.31 0-.2.07-.31.23-.31zM11.23 29.37c-.16 0-.38.06-.38.39 0 .26.13.4.38.4s.38-.14.38-.4c0-.21-.09-.4-.38-.4zm0 .08c.16 0 .24.1.24.3 0 .22-.08.32-.24.32-.16 0-.23-.1-.23-.3 0-.22.07-.32.23-.32zM12.55 29.37c-.16 0-.38.06-.38.39 0 .26.13.4.38.4s.39-.14.39-.4c0-.21-.1-.4-.39-.4zm0 .08c.16 0 .24.1.24.3 0 .22-.08.32-.24.32-.15 0-.23-.1-.23-.3 0-.22.08-.32.23-.32zM13.88 28.05c-.17 0-.39.05-.39.39 0 .25.14.39.39.39.24 0 .38-.14.38-.39 0-.22-.1-.4-.38-.4zm0 .08c.15 0 .23.1.23.3 0 .22-.07.32-.24.32-.15 0-.23-.1-.23-.31 0-.2.08-.31.24-.31zM12.55 26.72c-.16 0-.38.06-.38.4 0 .25.13.39.38.39s.39-.14.39-.39c0-.22-.1-.4-.39-.4zm0 .09c.16 0 .24.1.24.3 0 .22-.08.32-.24.32-.15 0-.23-.1-.23-.31s.08-.31.23-.31zM13.88 25.4c-.17 0-.39.06-.39.4 0 .25.14.38.39.38.24 0 .38-.13.38-.38 0-.22-.1-.4-.38-.4zm0 .08c.15 0 .23.1.23.31s-.07.31-.24.31c-.15 0-.23-.1-.23-.3 0-.21.08-.32.24-.32zM15.2 25.4c-.16 0-.38.06-.38.4 0 .25.13.38.38.38s.38-.13.38-.38c0-.22-.09-.4-.38-.4zm0 .08c.16 0 .23.1.23.31s-.07.31-.23.31-.23-.1-.23-.3c0-.21.07-.32.23-.32zM15.2 24.08c-.16 0-.38.06-.38.39 0 .25.13.39.38.39s.38-.14.38-.39c0-.22-.09-.4-.38-.4zm0 .08c.16 0 .23.1.23.3 0 .22-.07.32-.23.32s-.23-.1-.23-.31c0-.2.07-.31.23-.31zM16.52 24.08c-.16 0-.38.06-.38.39 0 .25.13.39.38.39s.39-.14.39-.39c0-.22-.1-.4-.39-.4zm0 .08c.16 0 .24.1.24.3 0 .22-.08.32-.24.32-.15 0-.23-.1-.23-.31 0-.2.08-.31.23-.31zM17.85 24.08c-.17 0-.39.06-.39.39 0 .25.13.39.39.39.24 0 .38-.14.38-.39 0-.22-.1-.4-.38-.4zm0 .08c.15 0 .23.1.23.3 0 .22-.08.32-.24.32-.15 0-.23-.1-.23-.31 0-.2.08-.31.24-.31zM17.85 25.4c-.17 0-.39.06-.39.4 0 .25.13.38.39.38.24 0 .38-.13.38-.38 0-.22-.1-.4-.38-.4zm0 .08c.15 0 .23.1.23.31s-.08.31-.24.31c-.15 0-.23-.1-.23-.3 0-.21.08-.32.24-.32zM16.52 25.4c-.16 0-.38.06-.38.4 0 .25.13.38.38.38s.39-.13.39-.38c0-.22-.1-.4-.39-.4zm0 .08c.16 0 .24.1.24.31s-.08.31-.24.31c-.15 0-.23-.1-.23-.3 0-.21.08-.32.23-.32zM15.2 26.72c-.16 0-.38.06-.38.4 0 .25.13.39.38.39s.38-.14.38-.39c0-.22-.09-.4-.38-.4zm0 .09c.16 0 .23.1.23.3 0 .22-.07.32-.23.32s-.23-.1-.23-.31.07-.31.23-.31zM16.52 26.72c-.16 0-.38.06-.38.4 0 .25.13.39.38.39s.39-.14.39-.39c0-.22-.1-.4-.39-.4zm0 .09c.16 0 .24.1.24.3 0 .22-.08.32-.24.32-.15 0-.23-.1-.23-.31s.08-.31.23-.31zM19.17 26.72c-.17 0-.38.06-.38.4 0 .25.13.39.38.39s.38-.14.38-.39c0-.22-.1-.4-.38-.4zm0 .09c.16 0 .23.1.23.3 0 .22-.07.32-.23.32s-.24-.1-.24-.31.08-.31.24-.31zM19.17 25.4c-.17 0-.38.06-.38.4 0 .25.13.38.38.38s.38-.13.38-.38c0-.22-.1-.4-.38-.4zm0 .08c.16 0 .23.1.23.31s-.07.31-.23.31-.24-.1-.24-.3c0-.21.08-.32.24-.32zM20.5 25.4c-.17 0-.4.06-.4.4 0 .25.14.38.4.38.24 0 .37-.13.37-.38 0-.22-.09-.4-.38-.4zm0 .08c.15 0 .23.1.23.31s-.08.31-.24.31c-.16 0-.23-.1-.23-.3 0-.21.07-.32.23-.32zM17.85 28.05c-.17 0-.39.05-.39.39 0 .25.13.39.39.39.24 0 .38-.14.38-.39 0-.22-.1-.4-.38-.4zm0 .08c.15 0 .23.1.23.3 0 .22-.08.32-.24.32-.15 0-.23-.1-.23-.31 0-.2.08-.31.24-.31zM20.5 22.75c-.17 0-.4.06-.4.4 0 .25.14.39.4.39.24 0 .37-.14.37-.39 0-.22-.09-.4-.38-.4zm0 .09c.15 0 .23.1.23.3 0 .22-.08.32-.24.32-.16 0-.23-.1-.23-.31s.07-.31.23-.31zM21.81 22.75c-.16 0-.38.06-.38.4 0 .25.13.39.38.39s.39-.14.39-.39c0-.22-.1-.4-.39-.4zm0 .09c.16 0 .24.1.24.3 0 .22-.08.32-.24.32-.15 0-.23-.1-.23-.31s.08-.31.23-.31zM21.81 24.08c-.16 0-.38.06-.38.39 0 .25.13.39.38.39s.39-.14.39-.39c0-.22-.1-.4-.39-.4zm0 .08c.16 0 .24.1.24.3 0 .22-.08.32-.24.32-.15 0-.23-.1-.23-.31 0-.2.08-.31.23-.31zM21.81 25.4c-.16 0-.38.06-.38.4 0 .25.13.38.38.38s.39-.13.39-.38c0-.22-.1-.4-.39-.4zm0 .08c.16 0 .24.1.24.31s-.08.31-.24.31c-.15 0-.23-.1-.23-.3 0-.21.08-.32.23-.32zM21.81 26.72c-.16 0-.38.06-.38.4 0 .25.13.39.38.39s.39-.14.39-.39c0-.22-.1-.4-.39-.4zm0 .09c.16 0 .24.1.24.3 0 .22-.08.32-.24.32-.15 0-.23-.1-.23-.31s.08-.31.23-.31zM24.46 24.08c-.16 0-.38.06-.38.39 0 .25.13.39.38.39s.38-.14.38-.39c0-.22-.09-.4-.38-.4zm0 .08c.16 0 .23.1.23.3 0 .22-.07.32-.23.32s-.23-.1-.23-.31c0-.2.07-.31.23-.31zM24.46 25.4c-.16 0-.38.06-.38.4 0 .25.13.38.38.38s.38-.13.38-.38c0-.22-.09-.4-.38-.4zm0 .08c.16 0 .23.1.23.31s-.07.31-.23.31-.23-.1-.23-.3c0-.21.07-.32.23-.32zM24.46 26.72c-.16 0-.38.06-.38.4 0 .25.13.39.38.39s.38-.14.38-.39c0-.22-.09-.4-.38-.4zm0 .09c.16 0 .23.1.23.3 0 .22-.07.32-.23.32s-.23-.1-.23-.31.07-.31.23-.31zM25.78 24.08c-.16 0-.38.06-.38.39 0 .25.13.39.38.39s.39-.14.39-.39c0-.22-.1-.4-.39-.4zm0 .08c.16 0 .24.1.24.3 0 .22-.08.32-.24.32-.15 0-.23-.1-.23-.31 0-.2.08-.31.23-.31zM25.78 26.72c-.16 0-.38.06-.38.4 0 .25.13.39.38.39s.39-.14.39-.39c0-.22-.1-.4-.39-.4zm0 .09c.16 0 .24.1.24.3 0 .22-.08.32-.24.32-.15 0-.23-.1-.23-.31s.08-.31.23-.31zM23.14 18.79c-.17 0-.39.05-.39.39 0 .25.14.39.39.39.24 0 .38-.14.38-.39 0-.22-.1-.4-.38-.4zm0 .08c.15 0 .23.1.23.3 0 .22-.07.32-.24.32-.15 0-.23-.1-.23-.31 0-.2.08-.31.24-.31zM24.46 18.79c-.16 0-.38.05-.38.39 0 .25.13.39.38.39s.38-.14.38-.39c0-.22-.09-.4-.38-.4zm0 .08c.16 0 .23.1.23.3 0 .22-.07.32-.23.32s-.23-.1-.23-.31c0-.2.07-.31.23-.31zM25.78 18.79c-.16 0-.38.05-.38.39 0 .25.13.39.38.39s.39-.14.39-.39c0-.22-.1-.4-.39-.4zm0 .08c.16 0 .24.1.24.3 0 .22-.08.32-.24.32-.15 0-.23-.1-.23-.31 0-.2.08-.31.23-.31zM27.1 18.79c-.16 0-.38.05-.38.39 0 .25.13.39.39.39.24 0 .38-.14.38-.39 0-.22-.1-.4-.38-.4zm0 .08c.16 0 .24.1.24.3 0 .22-.08.32-.24.32-.15 0-.23-.1-.23-.31 0-.2.08-.31.24-.31zM25.78 20.1c-.16 0-.38.07-.38.4 0 .26.13.4.38.4s.39-.14.39-.4c0-.21-.1-.4-.39-.4zm0 .1c.16 0 .24.1.24.3 0 .21-.08.31-.24.31-.15 0-.23-.1-.23-.3 0-.22.08-.32.23-.32zM24.46 20.1c-.16 0-.38.07-.38.4 0 .26.13.4.38.4s.38-.14.38-.4c0-.21-.09-.4-.38-.4zm0 .1c.16 0 .23.1.23.3 0 .21-.07.31-.23.31s-.23-.1-.23-.3c0-.22.07-.32.23-.32zM23.14 21.43c-.17 0-.39.06-.39.4 0 .25.14.38.39.38.24 0 .38-.13.38-.38 0-.22-.1-.4-.38-.4zm0 .08c.15 0 .23.1.23.31 0 .22-.07.32-.24.32-.15 0-.23-.1-.23-.32 0-.2.08-.3.24-.3zM24.46 21.43c-.16 0-.38.06-.38.4 0 .25.13.38.38.38s.38-.13.38-.38c0-.22-.09-.4-.38-.4zm0 .08c.16 0 .23.1.23.31 0 .22-.07.32-.23.32s-.23-.1-.23-.32c0-.2.07-.3.23-.3zM29.78 18.82c-.17 0-.39.06-.39.4 0 .25.13.38.39.38.24 0 .38-.13.38-.38 0-.22-.1-.4-.38-.4zm0 .08c.15 0 .23.1.23.3 0 .22-.08.32-.24.32-.15 0-.23-.1-.23-.3 0-.22.08-.32.24-.32zM31.07 18.79c-.16 0-.38.05-.38.39 0 .25.13.39.38.39s.39-.14.39-.39c0-.22-.1-.4-.39-.4zm0 .08c.16 0 .24.1.24.3 0 .22-.08.32-.24.32-.15 0-.23-.1-.23-.31 0-.2.08-.31.23-.31zM33.72 18.79c-.16 0-.38.05-.38.39 0 .25.13.39.38.39s.38-.14.38-.39c0-.22-.09-.4-.38-.4zm0 .08c.16 0 .24.1.24.3 0 .22-.08.32-.24.32-.16 0-.23-.1-.23-.31 0-.2.07-.31.23-.31zM32.4 20.1c-.17 0-.39.07-.39.4 0 .26.14.4.39.4s.38-.14.38-.4c0-.21-.1-.4-.38-.4zm0 .1c.15 0 .23.1.23.3 0 .21-.07.31-.24.31-.15 0-.23-.1-.23-.3 0-.22.08-.32.24-.32zM33.72 20.1c-.16 0-.38.07-.38.4 0 .26.13.4.38.4s.38-.14.38-.4c0-.21-.09-.4-.38-.4zm0 .1c.16 0 .24.1.24.3 0 .21-.08.31-.24.31-.16 0-.23-.1-.23-.3 0-.22.07-.32.23-.32zM33.72 21.43c-.16 0-.38.06-.38.4 0 .25.13.38.38.38s.38-.13.38-.38c0-.22-.09-.4-.38-.4zm0 .08c.16 0 .24.1.24.31 0 .22-.08.32-.24.32-.16 0-.23-.1-.23-.32 0-.2.07-.3.23-.3zM33.72 22.75c-.16 0-.38.06-.38.4 0 .25.13.39.38.39s.38-.14.38-.39c0-.22-.09-.4-.38-.4zm0 .09c.16 0 .24.1.24.3 0 .22-.08.32-.24.32-.16 0-.23-.1-.23-.31s.07-.31.23-.31zM32.4 22.75c-.17 0-.39.06-.39.4 0 .25.14.39.39.39s.38-.14.38-.39c0-.22-.1-.4-.38-.4zm0 .09c.15 0 .23.1.23.3 0 .22-.07.32-.24.32-.15 0-.23-.1-.23-.31s.08-.31.24-.31zM29.75 21.43c-.16 0-.38.06-.38.4 0 .25.13.38.38.38s.38-.13.38-.38c0-.22-.09-.4-.38-.4zm0 .08c.16 0 .24.1.24.31 0 .22-.08.32-.24.32-.15 0-.23-.1-.23-.32 0-.2.07-.3.23-.3zM27.1 24.08c-.16 0-.38.06-.38.39 0 .25.13.39.39.39.24 0 .38-.14.38-.39 0-.22-.1-.4-.38-.4zm0 .08c.16 0 .24.1.24.3 0 .22-.08.32-.24.32-.15 0-.23-.1-.23-.31 0-.2.08-.31.24-.31zM27.1 25.4c-.16 0-.38.06-.38.4 0 .25.13.38.39.38.24 0 .38-.13.38-.38 0-.22-.1-.4-.38-.4zm0 .08c.16 0 .24.1.24.31s-.08.31-.24.31c-.15 0-.23-.1-.23-.3 0-.21.08-.32.24-.32zM29.75 24.08c-.16 0-.38.06-.38.39 0 .25.13.39.38.39s.38-.14.38-.39c0-.22-.09-.4-.38-.4zm0 .08c.16 0 .24.1.24.3 0 .22-.08.32-.24.32-.15 0-.23-.1-.23-.31 0-.2.07-.31.23-.31zM31.07 24.08c-.16 0-.38.06-.38.39 0 .25.13.39.38.39s.39-.14.39-.39c0-.22-.1-.4-.39-.4zm0 .08c.16 0 .24.1.24.3 0 .22-.08.32-.24.32-.15 0-.23-.1-.23-.31 0-.2.08-.31.23-.31zM32.4 24.08c-.17 0-.39.06-.39.39 0 .25.14.39.39.39s.38-.14.38-.39c0-.22-.1-.4-.38-.4zm0 .08c.15 0 .23.1.23.3 0 .22-.07.32-.24.32-.15 0-.23-.1-.23-.31 0-.2.08-.31.24-.31zM33.72 24.08c-.16 0-.38.06-.38.39 0 .25.13.39.38.39s.38-.14.38-.39c0-.22-.09-.4-.38-.4zm0 .08c.16 0 .24.1.24.3 0 .22-.08.32-.24.32-.16 0-.23-.1-.23-.31 0-.2.07-.31.23-.31zM33.72 25.4c-.16 0-.38.06-.38.4 0 .25.13.38.38.38s.38-.13.38-.38c0-.22-.09-.4-.38-.4zm0 .08c.16 0 .24.1.24.31s-.08.31-.24.31c-.16 0-.23-.1-.23-.3 0-.21.07-.32.23-.32zM32.4 25.4c-.17 0-.39.06-.39.4 0 .25.14.38.39.38s.38-.13.38-.38c0-.22-.1-.4-.38-.4zm0 .08c.15 0 .23.1.23.31s-.07.31-.24.31c-.15 0-.23-.1-.23-.3 0-.21.08-.32.24-.32zM31.07 25.4c-.16 0-.38.06-.38.4 0 .25.13.38.38.38s.39-.13.39-.38c0-.22-.1-.4-.39-.4zm0 .08c.16 0 .24.1.24.31s-.08.31-.24.31c-.15 0-.23-.1-.23-.3 0-.21.08-.32.23-.32zM29.75 25.4c-.16 0-.38.06-.38.4 0 .25.13.38.38.38s.38-.13.38-.38c0-.22-.09-.4-.38-.4zm0 .08c.16 0 .24.1.24.31s-.08.31-.24.31c-.15 0-.23-.1-.23-.3 0-.21.07-.32.23-.32zM27.1 26.72c-.16 0-.38.06-.38.4 0 .25.13.39.39.39.24 0 .38-.14.38-.39 0-.22-.1-.4-.38-.4zm0 .09c.16 0 .24.1.24.3 0 .22-.08.32-.24.32-.15 0-.23-.1-.23-.31s.08-.31.24-.31zM21.81 28.05c-.16 0-.38.05-.38.39 0 .25.13.39.38.39s.39-.14.39-.39c0-.22-.1-.4-.39-.4zm0 .08c.16 0 .24.1.24.3 0 .22-.08.32-.24.32-.15 0-.23-.1-.23-.31 0-.2.08-.31.23-.31zM23.14 29.37c-.17 0-.39.06-.39.39 0 .26.14.4.39.4.24 0 .38-.14.38-.4 0-.21-.1-.4-.38-.4zm0 .08c.15 0 .23.1.23.3 0 .22-.07.32-.24.32-.15 0-.23-.1-.23-.3 0-.22.08-.32.24-.32zM20.5 29.37c-.17 0-.4.06-.4.39 0 .26.14.4.4.4.24 0 .37-.14.37-.4 0-.21-.09-.4-.38-.4zm0 .08c.15 0 .23.1.23.3 0 .22-.08.32-.24.32-.16 0-.23-.1-.23-.3 0-.22.07-.32.23-.32zM19.17 29.37c-.17 0-.38.06-.38.39 0 .26.13.4.38.4s.38-.14.38-.4c0-.21-.1-.4-.38-.4zm0 .08c.16 0 .23.1.23.3 0 .22-.07.32-.23.32s-.24-.1-.24-.3c0-.22.08-.32.24-.32zM16.52 29.37c-.16 0-.38.06-.38.39 0 .26.13.4.38.4s.39-.14.39-.4c0-.21-.1-.4-.39-.4zm0 .08c.16 0 .24.1.24.3 0 .22-.08.32-.24.32-.15 0-.23-.1-.23-.3 0-.22.08-.32.23-.32zM13.88 29.37c-.17 0-.39.06-.39.39 0 .26.14.4.39.4.24 0 .38-.14.38-.4 0-.21-.1-.4-.38-.4zm0 .08c.15 0 .23.1.23.3 0 .22-.07.32-.24.32-.15 0-.23-.1-.23-.3 0-.22.08-.32.24-.32zM11.23 30.7c-.16 0-.38.05-.38.38 0 .26.13.4.38.4s.38-.14.38-.39c0-.22-.09-.4-.38-.4zm0 .07c.16 0 .24.1.24.31 0 .22-.08.32-.24.32-.16 0-.23-.1-.23-.32 0-.2.07-.3.23-.3zM12.55 30.7c-.16 0-.38.05-.38.38 0 .26.13.4.38.4s.39-.14.39-.39c0-.22-.1-.4-.39-.4zm0 .07c.16 0 .24.1.24.31 0 .22-.08.32-.24.32-.15 0-.23-.1-.23-.32 0-.2.08-.3.23-.3zM11.23 32.01c-.16 0-.38.06-.38.4 0 .25.13.39.38.39s.38-.14.38-.39c0-.22-.09-.4-.38-.4zm0 .09c.16 0 .24.1.24.3 0 .22-.08.32-.24.32-.16 0-.23-.1-.23-.31s.07-.31.23-.31zM12.55 32.01c-.16 0-.38.06-.38.4 0 .25.13.39.38.39s.39-.14.39-.39c0-.22-.1-.4-.39-.4zm0 .09c.16 0 .24.1.24.3 0 .22-.08.32-.24.32-.15 0-.23-.1-.23-.31s.08-.31.23-.31zM13.88 32.01c-.17 0-.39.06-.39.4 0 .25.14.39.39.39.24 0 .38-.14.38-.39 0-.22-.1-.4-.38-.4zm0 .09c.15 0 .23.1.23.3 0 .22-.07.32-.24.32-.15 0-.23-.1-.23-.31s.08-.31.24-.31zM11.23 33.34c-.16 0-.38.06-.38.39 0 .25.13.39.38.39s.38-.14.38-.38c0-.22-.09-.4-.38-.4zm0 .08c.16 0 .24.1.24.3 0 .22-.08.32-.24.32-.16 0-.23-.1-.23-.31 0-.2.07-.3.23-.3zM13.88 33.34c-.17 0-.39.06-.39.39 0 .25.14.39.39.39.24 0 .38-.14.38-.38 0-.22-.1-.4-.38-.4zm0 .08c.15 0 .23.1.23.3 0 .22-.07.32-.24.32-.15 0-.23-.1-.23-.31 0-.2.08-.3.24-.3zM15.2 32.01c-.16 0-.38.06-.38.4 0 .25.13.39.38.39s.38-.14.38-.39c0-.22-.09-.4-.38-.4zm0 .09c.16 0 .23.1.23.3 0 .22-.07.32-.23.32s-.23-.1-.23-.31.07-.31.23-.31zM15.2 30.7c-.16 0-.38.05-.38.38 0 .26.13.4.38.4s.38-.14.38-.39c0-.22-.09-.4-.38-.4zm0 .07c.16 0 .23.1.23.31 0 .22-.07.32-.23.32s-.23-.1-.23-.32c0-.2.07-.3.23-.3zM16.52 33.36c-.16 0-.38.06-.38.39 0 .25.13.39.38.39s.39-.14.39-.39c0-.22-.1-.4-.39-.4zm0 .08c.16 0 .24.1.24.3 0 .22-.08.32-.24.32-.15 0-.23-.1-.23-.31 0-.2.08-.31.23-.31zM17.85 32.01c-.17 0-.39.06-.39.4 0 .25.13.39.39.39.24 0 .38-.14.38-.39 0-.22-.1-.4-.38-.4zm0 .09c.15 0 .23.1.23.3 0 .22-.08.32-.24.32-.15 0-.23-.1-.23-.31s.08-.31.24-.31zM20.5 32.01c-.17 0-.4.06-.4.4 0 .25.14.39.4.39.24 0 .37-.14.37-.39 0-.22-.09-.4-.38-.4zm0 .09c.15 0 .23.1.23.3 0 .22-.08.32-.24.32-.16 0-.23-.1-.23-.31s.07-.31.23-.31zM20.5 33.34c-.17 0-.4.06-.4.39 0 .25.14.39.4.39.24 0 .37-.14.37-.38 0-.22-.09-.4-.38-.4zm0 .08c.15 0 .23.1.23.3 0 .22-.08.32-.24.32-.16 0-.23-.1-.23-.31 0-.2.07-.3.23-.3zM23.14 30.7c-.17 0-.39.05-.39.38 0 .26.14.4.39.4.24 0 .38-.14.38-.39 0-.22-.1-.4-.38-.4zm0 .07c.15 0 .23.1.23.31 0 .22-.07.32-.24.32-.15 0-.23-.1-.23-.32 0-.2.08-.3.24-.3zM23.14 32.01c-.17 0-.39.06-.39.4 0 .25.14.39.39.39.24 0 .38-.14.38-.39 0-.22-.1-.4-.38-.4zm0 .09c.15 0 .23.1.23.3 0 .22-.07.32-.24.32-.15 0-.23-.1-.23-.31s.08-.31.24-.31zM23.14 33.34c-.17 0-.39.06-.39.39 0 .25.14.39.39.39.24 0 .38-.14.38-.38 0-.22-.1-.4-.38-.4zm0 .08c.15 0 .23.1.23.3 0 .22-.07.32-.24.32-.15 0-.23-.1-.23-.31 0-.2.08-.3.24-.3zM24.46 33.34c-.16 0-.38.06-.38.39 0 .25.13.39.38.39s.38-.14.38-.38c0-.22-.09-.4-.38-.4zm0 .08c.16 0 .23.1.23.3 0 .22-.07.32-.23.32s-.23-.1-.23-.31c0-.2.07-.3.23-.3zM25.78 32.01c-.16 0-.38.06-.38.4 0 .25.13.39.38.39s.39-.14.39-.39c0-.22-.1-.4-.39-.4zm0 .09c.16 0 .24.1.24.3 0 .22-.08.32-.24.32-.15 0-.23-.1-.23-.31s.08-.31.23-.31zM25.78 33.34c-.16 0-.38.06-.38.39 0 .25.13.39.38.39s.39-.14.39-.38c0-.22-.1-.4-.39-.4zm0 .08c.16 0 .24.1.24.3 0 .22-.08.32-.24.32-.15 0-.23-.1-.23-.31 0-.2.08-.3.23-.3zM24.46 30.7c-.16 0-.38.05-.38.38 0 .26.13.4.38.4s.38-.14.38-.39c0-.22-.09-.4-.38-.4zm0 .07c.16 0 .23.1.23.31 0 .22-.07.32-.23.32s-.23-.1-.23-.32c0-.2.07-.3.23-.3zM27.1 30.7c-.16 0-.38.05-.38.38 0 .26.13.4.39.4.24 0 .38-.14.38-.39 0-.22-.1-.4-.38-.4zm0 .07c.16 0 .24.1.24.31 0 .22-.08.32-.24.32-.15 0-.23-.1-.23-.32 0-.2.08-.3.24-.3zM27.1 33.34c-.16 0-.38.06-.38.39 0 .25.13.39.39.39.24 0 .38-.14.38-.38 0-.22-.1-.4-.38-.4zm0 .08c.16 0 .24.1.24.3 0 .22-.08.32-.24.32-.15 0-.23-.1-.23-.31 0-.2.08-.3.24-.3zM28.43 33.34c-.16 0-.38.06-.38.39 0 .25.13.39.38.39s.38-.14.38-.38c0-.22-.1-.4-.38-.4zm0 .08c.16 0 .23.1.23.3 0 .22-.07.32-.23.32s-.24-.1-.24-.31c0-.2.08-.3.24-.3zM29.75 33.34c-.16 0-.38.06-.38.39 0 .25.13.39.38.39s.38-.14.38-.38c0-.22-.09-.4-.38-.4zm0 .08c.16 0 .24.1.24.3 0 .22-.08.32-.24.32-.15 0-.23-.1-.23-.31 0-.2.07-.3.23-.3zM28.43 30.7c-.16 0-.38.05-.38.38 0 .26.13.4.38.4s.38-.14.38-.39c0-.22-.1-.4-.38-.4zm0 .07c.16 0 .23.1.23.31 0 .22-.07.32-.23.32s-.24-.1-.24-.32c0-.2.08-.3.24-.3zM28.43 29.37c-.16 0-.38.06-.38.39 0 .26.13.4.38.4s.38-.14.38-.4c0-.21-.1-.4-.38-.4zm0 .08c.16 0 .23.1.23.3 0 .22-.07.32-.23.32s-.24-.1-.24-.3c0-.22.08-.32.24-.32zM29.75 29.37c-.16 0-.38.06-.38.39 0 .26.13.4.38.4s.38-.14.38-.4c0-.21-.09-.4-.38-.4zm0 .08c.16 0 .24.1.24.3 0 .22-.08.32-.24.32-.15 0-.23-.1-.23-.3 0-.22.07-.32.23-.32zM31.07 30.7c-.16 0-.38.05-.38.38 0 .26.13.4.38.4s.39-.14.39-.39c0-.22-.1-.4-.39-.4zm0 .07c.16 0 .24.1.24.31 0 .22-.08.32-.24.32-.15 0-.23-.1-.23-.32 0-.2.08-.3.23-.3zM33.72 30.7c-.16 0-.38.05-.38.38 0 .26.13.4.38.4s.38-.14.38-.39c0-.22-.09-.4-.38-.4zm0 .07c.16 0 .24.1.24.31 0 .22-.08.32-.24.32-.16 0-.23-.1-.23-.32 0-.2.07-.3.23-.3zM32.4 28.05c-.17 0-.39.05-.39.39 0 .25.14.39.39.39s.38-.14.38-.39c0-.22-.1-.4-.38-.4zm0 .08c.15 0 .23.1.23.3 0 .22-.07.32-.24.32-.15 0-.23-.1-.23-.31 0-.2.08-.31.24-.31zM33.72 32.01c-.16 0-.38.06-.38.4 0 .25.13.39.38.39s.38-.14.38-.39c0-.22-.09-.4-.38-.4zm0 .09c.16 0 .24.1.24.3 0 .22-.08.32-.24.32-.16 0-.23-.1-.23-.31s.07-.31.23-.31zM5.94 2.91c-.16 0-.38.06-.38.4 0 .25.13.38.38.38s.38-.13.38-.38c0-.22-.09-.4-.38-.4zm0 .08c.16 0 .23.1.23.31 0 .22-.07.32-.23.32s-.23-.1-.23-.32c0-.2.07-.3.23-.3zM7.26 2.91c-.16 0-.38.06-.38.4 0 .25.13.38.38.38s.39-.13.39-.38c0-.22-.1-.4-.39-.4zm0 .08c.16 0 .24.1.24.31 0 .22-.08.32-.24.32-.15 0-.23-.1-.23-.32 0-.2.08-.3.23-.3zM8.59 2.91c-.17 0-.39.06-.39.4 0 .25.13.38.39.38.24 0 .38-.13.38-.38 0-.22-.1-.4-.38-.4zm0 .08c.15 0 .23.1.23.31 0 .22-.08.32-.24.32-.15 0-.23-.1-.23-.32 0-.2.08-.3.24-.3zM8.59 4.23c-.17 0-.39.06-.39.4 0 .25.13.39.39.39.24 0 .38-.14.38-.39 0-.22-.1-.4-.38-.4zm0 .09c.15 0 .23.1.23.3 0 .22-.08.32-.24.32-.15 0-.23-.1-.23-.31s.08-.31.24-.31zM8.59 5.56c-.17 0-.39.06-.39.39 0 .25.13.39.39.39.24 0 .38-.14.38-.39 0-.22-.1-.4-.38-.4zm0 .08c.15 0 .23.1.23.3 0 .22-.08.32-.24.32-.15 0-.23-.1-.23-.31 0-.2.08-.31.24-.31zM3.3 4.23c-.17 0-.39.06-.39.4 0 .25.13.39.38.39s.39-.14.39-.39c0-.22-.1-.4-.39-.4zm0 .09c.15 0 .23.1.23.3 0 .22-.08.32-.24.32-.15 0-.23-.1-.23-.31s.08-.31.23-.31zM3.3 5.56c-.17 0-.39.06-.39.39 0 .25.13.39.38.39s.39-.14.39-.39c0-.22-.1-.4-.39-.4zm0 .08c.15 0 .23.1.23.3 0 .22-.08.32-.24.32-.15 0-.23-.1-.23-.31 0-.2.08-.31.23-.31zM3.3 6.88c-.17 0-.39.06-.39.4 0 .25.13.38.38.38s.39-.13.39-.38c0-.22-.1-.4-.39-.4zm0 .08c.15 0 .23.1.23.3 0 .22-.08.32-.24.32-.15 0-.23-.1-.23-.3 0-.22.08-.32.23-.32zM3.3 8.2c-.17 0-.39.06-.39.4 0 .25.13.38.38.38s.39-.13.39-.38c0-.22-.1-.4-.39-.4zm0 .09c.15 0 .23.1.23.3 0 .22-.08.32-.24.32-.15 0-.23-.1-.23-.32 0-.2.08-.3.23-.3zM4.62 8.2c-.17 0-.39.06-.39.4 0 .25.14.38.39.38.24 0 .38-.13.38-.38 0-.22-.1-.4-.38-.4zm0 .09c.15 0 .23.1.23.3 0 .22-.08.32-.24.32-.15 0-.23-.1-.23-.32 0-.2.08-.3.24-.3zM5.94 8.2c-.16 0-.38.06-.38.4 0 .25.13.38.38.38s.38-.13.38-.38c0-.22-.09-.4-.38-.4zm0 .09c.16 0 .23.1.23.3 0 .22-.07.32-.23.32s-.23-.1-.23-.32c0-.2.07-.3.23-.3zM7.26 8.2c-.16 0-.38.06-.38.4 0 .25.13.38.38.38s.39-.13.39-.38c0-.22-.1-.4-.39-.4zm0 .09c.16 0 .24.1.24.3 0 .22-.08.32-.24.32-.15 0-.23-.1-.23-.32 0-.2.08-.3.23-.3zM8.59 8.2c-.17 0-.39.06-.39.4 0 .25.13.38.39.38.24 0 .38-.13.38-.38 0-.22-.1-.4-.38-.4zm0 .09c.15 0 .23.1.23.3 0 .22-.08.32-.24.32-.15 0-.23-.1-.23-.32 0-.2.08-.3.24-.3zM8.59 6.88c-.17 0-.39.06-.39.4 0 .25.13.38.39.38.24 0 .38-.13.38-.38 0-.22-.1-.4-.38-.4zm0 .08c.15 0 .23.1.23.3 0 .22-.08.32-.24.32-.15 0-.23-.1-.23-.3 0-.22.08-.32.24-.32zM27.1 2.91c-.16 0-.38.06-.38.4 0 .25.13.38.39.38.24 0 .38-.13.38-.38 0-.22-.1-.4-.38-.4zm0 .08c.16 0 .24.1.24.31 0 .22-.08.32-.24.32-.15 0-.23-.1-.23-.32 0-.2.08-.3.24-.3zM28.43 2.91c-.16 0-.38.06-.38.4 0 .25.13.38.38.38s.38-.13.38-.38c0-.22-.1-.4-.38-.4zm0 .08c.16 0 .23.1.23.31 0 .22-.07.32-.23.32s-.24-.1-.24-.32c0-.2.08-.3.24-.3zM29.75 2.91c-.16 0-.38.06-.38.4 0 .25.13.38.38.38s.38-.13.38-.38c0-.22-.09-.4-.38-.4zm0 .08c.16 0 .24.1.24.31 0 .22-.08.32-.24.32-.15 0-.23-.1-.23-.32 0-.2.07-.3.23-.3zM31.07 2.91c-.16 0-.38.06-.38.4 0 .25.13.38.38.38s.39-.13.39-.38c0-.22-.1-.4-.39-.4zm0 .08c.16 0 .24.1.24.31 0 .22-.08.32-.24.32-.15 0-.23-.1-.23-.32 0-.2.08-.3.23-.3zM32.4 2.91c-.17 0-.39.06-.39.4 0 .25.14.38.39.38s.38-.13.38-.38c0-.22-.1-.4-.38-.4zm0 .08c.15 0 .23.1.23.31 0 .22-.07.32-.24.32-.15 0-.23-.1-.23-.32 0-.2.08-.3.24-.3zM32.4 4.23c-.17 0-.39.06-.39.4 0 .25.14.39.39.39s.38-.14.38-.39c0-.22-.1-.4-.38-.4zm0 .09c.15 0 .23.1.23.3 0 .22-.07.32-.24.32-.15 0-.23-.1-.23-.31s.08-.31.24-.31zM32.4 5.56c-.17 0-.39.06-.39.39 0 .25.14.39.39.39s.38-.14.38-.39c0-.22-.1-.4-.38-.4zm0 .08c.15 0 .23.1.23.3 0 .22-.07.32-.24.32-.15 0-.23-.1-.23-.31 0-.2.08-.31.24-.31zM27.1 4.23c-.16 0-.38.06-.38.4 0 .25.13.39.39.39.24 0 .38-.14.38-.39 0-.22-.1-.4-.38-.4zm0 .09c.16 0 .24.1.24.3 0 .22-.08.32-.24.32-.15 0-.23-.1-.23-.31s.08-.31.24-.31zM27.1 5.56c-.16 0-.38.06-.38.39 0 .25.13.39.39.39.24 0 .38-.14.38-.39 0-.22-.1-.4-.38-.4zm0 .08c.16 0 .24.1.24.3 0 .22-.08.32-.24.32-.15 0-.23-.1-.23-.31 0-.2.08-.31.24-.31zM27.1 6.88c-.16 0-.38.06-.38.4 0 .25.13.38.39.38.24 0 .38-.13.38-.38 0-.22-.1-.4-.38-.4zm0 .08c.16 0 .24.1.24.3 0 .22-.08.32-.24.32-.15 0-.23-.1-.23-.3 0-.22.08-.32.24-.32zM27.1 8.2c-.16 0-.38.06-.38.4 0 .25.13.38.39.38.24 0 .38-.13.38-.38 0-.22-.1-.4-.38-.4zm0 .09c.16 0 .24.1.24.3 0 .22-.08.32-.24.32-.15 0-.23-.1-.23-.32 0-.2.08-.3.24-.3zM28.43 8.2c-.16 0-.38.06-.38.4 0 .25.13.38.38.38s.38-.13.38-.38c0-.22-.1-.4-.38-.4zm0 .09c.16 0 .23.1.23.3 0 .22-.07.32-.23.32s-.24-.1-.24-.32c0-.2.08-.3.24-.3zM29.75 8.2c-.16 0-.38.06-.38.4 0 .25.13.38.38.38s.38-.13.38-.38c0-.22-.09-.4-.38-.4zm0 .09c.16 0 .24.1.24.3 0 .22-.08.32-.24.32-.15 0-.23-.1-.23-.32 0-.2.07-.3.23-.3zM31.07 8.2c-.16 0-.38.06-.38.4 0 .25.13.38.38.38s.39-.13.39-.38c0-.22-.1-.4-.39-.4zm0 .09c.16 0 .24.1.24.3 0 .22-.08.32-.24.32-.15 0-.23-.1-.23-.32 0-.2.08-.3.23-.3zM32.4 8.2c-.17 0-.39.06-.39.4 0 .25.14.38.39.38s.38-.13.38-.38c0-.22-.1-.4-.38-.4zm0 .09c.15 0 .23.1.23.3 0 .22-.07.32-.24.32-.15 0-.23-.1-.23-.32 0-.2.08-.3.24-.3zM32.4 6.88c-.17 0-.39.06-.39.4 0 .25.14.38.39.38s.38-.13.38-.38c0-.22-.1-.4-.38-.4zm0 .08c.15 0 .23.1.23.3 0 .22-.07.32-.24.32-.15 0-.23-.1-.23-.3 0-.22.08-.32.24-.32zM3.3 26.72c-.17 0-.39.06-.39.4 0 .25.13.39.38.39s.39-.14.39-.39c0-.22-.1-.4-.39-.4zm0 .09c.15 0 .23.1.23.3 0 .22-.08.32-.24.32-.15 0-.23-.1-.23-.31s.08-.31.23-.31zM4.62 26.72c-.17 0-.39.06-.39.4 0 .25.14.39.39.39.24 0 .38-.14.38-.39 0-.22-.1-.4-.38-.4zm0 .09c.15 0 .23.1.23.3 0 .22-.08.32-.24.32-.15 0-.23-.1-.23-.31s.08-.31.24-.31zM5.94 26.72c-.16 0-.38.06-.38.4 0 .25.13.39.38.39s.38-.14.38-.39c0-.22-.09-.4-.38-.4zm0 .09c.16 0 .23.1.23.3 0 .22-.07.32-.23.32s-.23-.1-.23-.31.07-.31.23-.31zM7.26 26.72c-.16 0-.38.06-.38.4 0 .25.13.39.38.39s.39-.14.39-.39c0-.22-.1-.4-.39-.4zm0 .09c.16 0 .24.1.24.3 0 .22-.08.32-.24.32-.15 0-.23-.1-.23-.31s.08-.31.23-.31zM8.59 26.72c-.17 0-.39.06-.39.4 0 .25.13.39.39.39.24 0 .38-.14.38-.39 0-.22-.1-.4-.38-.4zm0 .09c.15 0 .23.1.23.3 0 .22-.08.32-.24.32-.15 0-.23-.1-.23-.31s.08-.31.24-.31zM8.59 28.05c-.17 0-.39.05-.39.39 0 .25.13.39.39.39.24 0 .38-.14.38-.39 0-.22-.1-.4-.38-.4zm0 .08c.15 0 .23.1.23.3 0 .22-.08.32-.24.32-.15 0-.23-.1-.23-.31 0-.2.08-.31.24-.31zM8.59 29.37c-.17 0-.39.06-.39.39 0 .26.13.4.39.4.24 0 .38-.14.38-.4 0-.21-.1-.4-.38-.4zm0 .08c.15 0 .23.1.23.3 0 .22-.08.32-.24.32-.15 0-.23-.1-.23-.3 0-.22.08-.32.24-.32zM3.3 28.05c-.17 0-.39.05-.39.39 0 .25.13.39.38.39s.39-.14.39-.39c0-.22-.1-.4-.39-.4zm0 .08c.15 0 .23.1.23.3 0 .22-.08.32-.24.32-.15 0-.23-.1-.23-.31 0-.2.08-.31.23-.31zM3.3 29.37c-.17 0-.39.06-.39.39 0 .26.13.4.38.4s.39-.14.39-.4c0-.21-.1-.4-.39-.4zm0 .08c.15 0 .23.1.23.3 0 .22-.08.32-.24.32-.15 0-.23-.1-.23-.3 0-.22.08-.32.23-.32zM3.3 30.7c-.17 0-.39.05-.39.38 0 .26.13.4.38.4s.39-.14.39-.39c0-.22-.1-.4-.39-.4zm0 .07c.15 0 .23.1.23.31 0 .22-.08.32-.24.32-.15 0-.23-.1-.23-.32 0-.2.08-.3.23-.3zM3.3 32.01c-.17 0-.39.06-.39.4 0 .25.13.39.38.39s.39-.14.39-.39c0-.22-.1-.4-.39-.4zm0 .09c.15 0 .23.1.23.3 0 .22-.08.32-.24.32-.15 0-.23-.1-.23-.31s.08-.31.23-.31zM4.62 32.01c-.17 0-.39.06-.39.4 0 .25.14.39.39.39.24 0 .38-.14.38-.39 0-.22-.1-.4-.38-.4zm0 .09c.15 0 .23.1.23.3 0 .22-.08.32-.24.32-.15 0-.23-.1-.23-.31s.08-.31.24-.31zM5.94 32.01c-.16 0-.38.06-.38.4 0 .25.13.39.38.39s.38-.14.38-.39c0-.22-.09-.4-.38-.4zm0 .09c.16 0 .23.1.23.3 0 .22-.07.32-.23.32s-.23-.1-.23-.31.07-.31.23-.31zM7.26 32.01c-.16 0-.38.06-.38.4 0 .25.13.39.38.39s.39-.14.39-.39c0-.22-.1-.4-.39-.4zm0 .09c.16 0 .24.1.24.3 0 .22-.08.32-.24.32-.15 0-.23-.1-.23-.31s.08-.31.23-.31zM8.59 32.01c-.17 0-.39.06-.39.4 0 .25.13.39.39.39.24 0 .38-.14.38-.39 0-.22-.1-.4-.38-.4zm0 .09c.15 0 .23.1.23.3 0 .22-.08.32-.24.32-.15 0-.23-.1-.23-.31s.08-.31.24-.31zM8.59 30.7c-.17 0-.39.05-.39.38 0 .26.13.4.39.4.24 0 .38-.14.38-.39 0-.22-.1-.4-.38-.4zm0 .07c.15 0 .23.1.23.31 0 .22-.08.32-.24.32-.15 0-.23-.1-.23-.32 0-.2.08-.3.24-.3z" />
  <path class="data-bit-one" fill="#ff3131"
    d="M2 5.6c-.05.12-.09.13-.33.15v.07h.28v.54h.16V5.6zM2 6.93c-.05.11-.09.13-.33.15v.07h.28v.54h.16v-.76zM2.01 8.24c-.05.12-.09.13-.34.15v.07h.29V9h.16v-.76zM2 9.56c-.06.12-.1.13-.35.15v.07h.29v.54h.16v-.76ZM4.65 9.56c-.05.12-.09.14-.34.16v.06h.29v.55h.16v-.77ZM3.33 9.57c-.05.12-.09.14-.33.16v.06h.28v.55h.16v-.77ZM5.97 9.56c-.05.12-.09.14-.33.16v.06h.28v.55h.16v-.77ZM7.3 9.56c-.06.12-.1.14-.35.16v.06h.29v.55h.16v-.77ZM8.6 9.56c-.06.12-.1.13-.34.15v.07h.28v.54h.16v-.76ZM9.95 2.96c-.06.12-.1.13-.34.15v.07h.29v.54h.15v-.76ZM9.95 4.28c-.06.12-.1.14-.34.15v.07h.29v.55h.15v-.77zM9.95 5.6c-.06.11-.1.13-.34.15v.06h.29v.55h.15V5.6zM9.95 6.92c-.06.12-.1.13-.34.15v.07h.29v.54h.15v-.76zM9.95 8.24c-.06.11-.1.13-.34.15v.07h.29V9h.15v-.76zM9.95 9.57c-.06.12-.1.14-.34.16v.06h.29v.55h.15v-.77ZM4.66 4.29c-.06.12-.1.13-.34.15v.07h.28v.54h.16V4.3zM5.98 4.28c-.06.12-.1.14-.34.15v.07h.29v.55h.16v-.77zM7.3 4.28c-.06.11-.1.13-.34.15v.07h.29v.54h.15v-.76zM7.3 5.58c-.05.12-.1.14-.34.16v.06h.29v.55h.16v-.77zM7.3 6.92c-.06.12-.1.14-.34.16v.06h.28v.55h.16v-.77ZM5.98 6.9c-.06.12-.1.13-.34.15v.07h.29v.54h.16V6.9zM4.65 6.92c-.05.12-.09.14-.34.16v.06h.29v.55h.16v-.77ZM4.65 5.6c-.05.12-.09.13-.34.15v.07h.29v.54h.16V5.6zM5.98 5.6c-.06.12-.1.13-.34.15v.07h.29v.54h.16V5.6zM27.12 1.62c-.05.12-.09.13-.33.15v.07h.28v.54h.16v-.76ZM25.82 4.27c-.06.12-.1.14-.34.15v.07h.28v.54h.16v-.76zM25.82 2.95c-.06.12-.1.14-.34.16v.06h.28v.55h.16v-.77zM25.82 1.62c-.06.11-.1.13-.34.15v.07h.28v.54h.16v-.76zM29.8 1.62c-.06.12-.1.13-.35.15v.07h.29v.54h.16v-.76zM31.12 1.64c-.06.12-.1.14-.34.16v.06h.29v.55h.16v-.77zM32.45 1.63c-.06.11-.1.13-.34.15v.07h.29v.54h.16v-.76zM33.75 1.62c-.05.11-.1.13-.34.15v.07h.29v.54h.16v-.76ZM28.46 1.62c-.05.11-.09.13-.34.15v.07h.29v.54h.16v-.76zM25.81 5.6c-.05.11-.09.13-.33.15v.06h.28v.55h.16V5.6zM25.81 6.92c-.05.12-.09.14-.33.15v.07h.28v.54h.16v-.76zM25.82 8.23c-.06.12-.1.14-.34.16v.06h.29V9h.16v-.77zM25.8 9.56c-.06.11-.1.13-.34.15v.06h.29v.55h.16v-.76ZM28.46 9.56c-.06.12-.1.13-.34.15v.07h.29v.54h.16v-.76ZM27.14 9.57c-.05.12-.09.13-.34.15v.07h.29v.54h.16v-.76ZM29.78 9.56c-.05.12-.09.13-.34.15v.07h.29v.54h.16v-.76ZM31.1 9.56c-.06.12-.1.13-.34.15v.07h.29v.54h.15v-.76ZM32.4 9.55c-.05.12-.09.14-.33.16v.06h.28v.55h.16v-.77ZM33.76 2.95c-.06.12-.1.14-.34.16v.06h.28v.55h.16v-.77zM33.76 4.28c-.06.11-.1.13-.34.15v.07h.28v.54h.16v-.76zM33.76 5.59c-.06.12-.1.13-.34.15v.07h.28v.54h.16V5.6zM33.76 6.91c-.06.12-.1.14-.34.16v.06h.28v.55h.16V6.9zM33.76 8.23c-.06.12-.1.13-.34.15v.07h.28v.54h.16v-.76zM33.76 9.57c-.06.12-.1.13-.34.15v.07h.28v.54h.16v-.76ZM28.47 4.28c-.06.12-.1.14-.34.15v.07h.28v.55h.16v-.77zM29.79 4.28c-.06.11-.1.13-.34.15v.07h.28v.54h.16v-.76zM31.1 4.27c-.05.12-.08.14-.33.15v.07h.28v.54h.16v-.76zM31.11 5.58c-.06.12-.1.13-.34.15v.07h.29v.54h.15v-.76zM31.1 6.92c-.05.12-.09.13-.33.15v.07h.28v.54h.16v-.76zM29.79 6.9c-.06.1-.1.13-.34.14v.07h.28v.54h.16V6.9zM28.46 6.92c-.06.12-.1.13-.34.15v.07h.29v.54h.16v-.76zM28.46 5.6c-.06.11-.1.13-.34.15v.06h.29v.55h.16V5.6zM29.79 5.6c-.06.11-.1.13-.34.15v.06h.28v.55h.16V5.6zM3.31 25.44c-.06.12-.1.13-.34.15v.07h.29v.54h.16v-.76zM2 28.09c-.05.12-.1.13-.34.15v.07h.29v.54h.16v-.76zM2 26.77c-.05.12-.1.14-.34.15V27h.29v.55h.16v-.77zM2 25.43c-.05.12-.1.14-.34.16v.06h.29v.55h.16v-.77zM5.98 25.44c-.06.12-.1.13-.34.15v.07h.28v.54h.16v-.76zM7.3 25.46c-.05.12-.09.14-.33.15v.07h.28v.54h.16v-.76zM8.64 25.44c-.06.12-.1.14-.34.16v.06h.28v.55h.16v-.77ZM9.94 25.43c-.06.12-.1.14-.34.16v.06h.28v.55h.16v-.77zM4.65 25.43c-.06.12-.1.14-.34.16v.06h.28v.55h.16v-.77zM2 29.41c-.06.12-.1.14-.34.16v.06h.29v.55h.16v-.77zM2 30.74c-.06.12-.1.13-.34.15v.07h.29v.54h.16v-.76zM2 32.05c-.05.12-.09.14-.33.15v.07h.28v.54h.16v-.76zM1.99 33.37c-.06.12-.1.14-.34.16v.06h.28v.55h.16v-.77zM4.65 33.38c-.06.11-.1.13-.34.15v.07h.28v.54h.16v-.76zM3.33 33.39c-.06.11-.1.13-.34.15v.07h.28v.54h.16v-.76zM5.97 33.38c-.06.11-.1.13-.34.15v.07h.28v.54h.16v-.76zM7.29 33.38c-.06.11-.1.13-.34.15v.07h.28v.54h.16v-.76zM8.6 33.37c-.06.12-.1.14-.35.15v.07h.29v.54h.16v-.76zM9.94 26.77c-.05.12-.09.14-.34.15V27h.29v.55h.16v-.77zM9.94 28.1c-.05.11-.09.13-.34.15v.07h.29v.54h.16v-.76zM9.94 29.4c-.05.13-.09.14-.34.16v.07h.29v.54h.16v-.76zM9.94 30.73c-.05.12-.09.14-.34.15v.07h.29v.55h.16v-.77zM9.94 32.05c-.05.12-.09.13-.34.15v.07h.29v.54h.16v-.76zM9.94 33.39c-.05.11-.09.13-.34.15v.07h.29v.54h.16v-.76zM4.65 28.1c-.05.12-.1.13-.34.15v.07h.29v.54h.16v-.76zM5.97 28.1c-.05.11-.09.13-.33.15v.07h.28v.54h.16v-.76zM7.3 28.09c-.06.12-.1.13-.34.15v.07h.28v.54h.16v-.76zM7.3 29.4c-.06.11-.1.13-.34.15v.07h.28v.54h.16v-.76ZM7.3 30.74c-.06.11-.1.13-.35.15v.07h.29v.54h.16v-.76zM5.97 30.71c-.05.12-.09.13-.33.15v.07h.28v.54h.16v-.76zM4.65 30.74c-.06.11-.1.13-.34.15v.07h.28v.54h.16v-.76zM4.65 29.41c-.06.12-.1.14-.34.16v.06h.28v.55h.16v-.77zM5.97 29.41c-.05.12-.09.14-.33.16v.06h.28v.55h.16v-.77zM21.86 5.6c-.06.12-.1.14-.34.16v.07h.28v.54h.16V5.6zM12.6 5.6c-.06.12-.1.14-.34.16v.07h.28v.54h.16V5.6zM19.21 1.64c-.06.11-.1.13-.34.15v.07h.29v.54h.15v-.76zM21.86 1.64c-.06.11-.1.13-.34.15v.07h.28v.54h.16v-.76zM23.18 1.64c-.06.11-.1.13-.34.15v.07h.28v.54h.16v-.76zM23.18 2.96c-.06.12-.1.13-.34.15v.07h.28v.54h.16v-.76ZM21.86 4.28c-.06.12-.1.14-.34.15v.07h.28v.55h.16v-.77zM23.18 5.6c-.06.12-.1.14-.34.16v.07h.28v.54h.16V5.6zM20.53 6.93c-.05.12-.09.13-.34.15v.07h.29v.54h.16v-.76zM21.85 6.92c-.05.12-.09.13-.33.15v.07h.28v.54h.16v-.76zM23.18 6.93c-.06.12-.1.13-.34.15v.07h.28v.54h.16v-.76zM12.59 6.92c-.06.12-.1.13-.34.15v.07h.29v.54h.16v-.76zM13.91 6.91c-.05.12-.09.14-.33.16v.06h.28v.55h.16V6.9zM12.59 8.24c-.06.12-.1.13-.34.15v.07h.28V9h.16v-.76zM13.9 8.24c-.05.12-.09.13-.33.15v.07h.28V9h.16v-.76zM12.59 9.57c-.06.11-.1.13-.34.15v.07h.28v.54h.16v-.76ZM12.59 10.9c-.06.12-.1.13-.34.15v.07h.28v.54h.16v-.76zM12.59 12.2c-.06.12-.1.14-.34.16v.07h.28v.54h.16v-.76zM11.27 12.22c-.05.12-.09.13-.34.15v.07h.29v.54h.16v-.76zM9.96 12.2c-.06.12-.1.14-.34.16v.06h.28v.55h.16v-.77zM12.59 13.53c-.06.12-.1.13-.34.15v.07h.28v.54h.16v-.76zM13.9 13.53c-.05.12-.1.13-.34.15v.07h.29v.54H14v-.76zM15.24 12.2c-.06.12-.1.14-.34.16v.06h.28v.55h.16v-.77zM15.24 13.53c-.06.12-.1.13-.34.15v.07h.28v.54h.16v-.76zM16.54 13.53c-.05.12-.09.13-.34.15v.07h.29v.54h.16v-.76zM16.54 14.85c-.05.12-.09.13-.34.15v.07h.29v.54h.16v-.76zM17.88 13.53c-.06.12-.1.13-.34.15v.07h.28v.54h.16v-.76zM19.21 13.53c-.06.12-.1.13-.34.15v.07h.29v.54h.16v-.76zM19.21 12.2c-.06.12-.1.14-.34.16v.06h.29v.55h.15v-.77zM20.52 13.53c-.06.12-.1.13-.34.15v.07h.28v.54h.16v-.76zM21.86 13.54c-.06.12-.1.14-.34.16v.06h.28v.55h.16v-.77zM23.16 13.54c-.06.12-.1.14-.34.16v.06h.28v.55h.16v-.77zM24.48 12.2c-.05.12-.09.14-.33.16v.06h.28v.55h.16v-.77zM21.84 10.88c-.06.12-.1.14-.34.15v.07h.29v.54h.16v-.76zM20.5 9.56c-.05.12-.08.13-.33.15v.07h.28v.54h.16v-.76ZM23.15 9.56c-.05.12-.09.13-.33.15v.07h.28v.54h.16v-.76ZM15.22 8.24c-.05.12-.09.13-.33.15v.07h.28V9h.16v-.76zM15.22 9.56c-.05.12-.09.13-.33.15v.07h.28v.54h.16v-.76ZM17.87 9.56c-.05.12-.09.13-.34.15v.07h.29v.54h.16v-.76ZM25.8 12.2c-.05.12-.09.14-.33.16v.06h.28v.55h.16v-.77zM27.13 12.2c-.06.12-.1.14-.34.16v.06h.29v.55h.16v-.76zM21.86 14.85c-.06.12-.1.13-.34.15v.07h.28v.54h.16v-.76zM23.16 14.88c-.06.11-.1.13-.34.15v.06h.28v.55h.16v-.76zM24.48 13.53c-.05.12-.09.13-.33.15v.07h.28v.54h.16v-.76zM24.48 14.85c-.05.12-.09.13-.33.15v.07h.28v.54h.16v-.76zM19.21 10.9c-.06.11-.1.13-.34.15v.07h.29v.54h.15v-.76ZM28.45 12.2c-.05.12-.09.14-.34.16v.06h.29v.55h.16v-.77zM29.78 12.23c-.06.12-.1.14-.34.16v.06h.28V13h.16v-.77zM33.75 12.23c-.05.12-.09.14-.34.16v.06h.29V13h.16v-.77zM32.42 13.53c-.05.12-.1.13-.34.15v.07h.29v.54h.16v-.76zM28.42 13.53c-.05.12-.09.13-.33.15v.07h.28v.54h.16v-.76zM29.78 13.53c-.06.12-.1.13-.34.15v.07h.28v.54h.16v-.76zM2.01 12.22c-.05.12-.1.13-.34.15v.07h.29v.54h.16v-.76zM2.01 13.53c-.05.12-.1.13-.34.15v.07h.29v.54h.16v-.76zM2.01 14.85c-.05.12-.1.13-.34.15v.07h.29v.54h.16v-.76zM2.01 16.19c-.05.12-.1.13-.34.15v.07h.29v.54h.16v-.76zM3.33 16.17c-.06.12-.1.14-.34.16v.06h.28v.55h.16v-.77zM7.3 12.2c-.06.12-.1.14-.34.16v.06h.28v.55h.16v-.77zM4.66 13.54c-.06.12-.1.14-.34.16v.06h.28v.55h.16v-.77zM5.97 13.54c-.05.12-.09.14-.34.16v.06h.29v.55h.16v-.77zM7.3 13.53c-.06.12-.1.13-.34.15v.07h.28v.54h.16v-.76zM5.98 14.87c-.06.11-.1.13-.34.15v.07h.29v.54h.16v-.76ZM5.98 16.19c-.06.12-.1.13-.34.15v.07h.29v.54h.16v-.76zM7.3 16.19c-.06.12-.1.13-.34.15v.07h.28v.54h.16v-.76zM8.62 14.85c-.06.12-.1.13-.34.15v.07h.28v.54h.16v-.76zM9.95 14.87c-.06.11-.1.13-.34.15v.07h.29v.54h.15v-.76ZM11.25 14.87c-.05.11-.09.13-.33.15v.07h.28v.54h.16v-.76ZM11.25 16.17c-.05.12-.09.14-.33.16v.06h.28v.55h.16v-.77zM8.63 17.51c-.06.12-.1.14-.34.15v.07h.28v.54h.16v-.76zM9.95 17.51c-.06.12-.1.14-.34.15v.07h.28v.54h.16v-.76zM12.59 16.17c-.06.12-.1.14-.34.16v.06h.28v.55h.16v-.77zM13.9 16.17c-.05.12-.1.14-.34.16v.06h.29v.55H14v-.77zM15.22 16.17c-.06.12-.1.14-.34.16v.06h.28v.55h.16v-.77ZM17.88 14.85c-.06.12-.1.13-.34.15v.07h.28v.54h.16v-.76zM17.88 16.17c-.06.12-.1.14-.34.16v.06h.28v.55h.16v-.77zM27.13 14.85c-.06.12-.1.13-.34.15v.07h.28v.54h.16v-.76zM29.78 14.85c-.06.12-.1.13-.34.15v.07h.28v.54h.16v-.76zM31.1 14.85c-.06.12-.1.13-.34.15v.07h.28v.54h.16v-.76zM31.1 16.17c-.06.12-.1.14-.34.16v.06h.28v.55h.16v-.77zM32.42 16.17c-.06.12-.1.14-.34.16v.06h.28v.55h.16v-.77zM29.76 17.5c-.05.11-.09.13-.33.15v.07h.28v.54h.16v-.76zM31.1 17.5c-.06.11-.1.13-.34.15v.07h.28v.54h.16v-.76zM32.42 17.5c-.05.11-.09.13-.34.15v.07h.29v.54h.16v-.76zM33.75 17.5c-.05.11-.09.13-.34.15v.07h.29v.54h.16v-.76zM24.48 16.17c-.05.12-.09.14-.33.16v.06h.28v.55h.16v-.77zM25.8 16.17c-.06.12-.1.14-.35.16v.06h.29v.55h.16v-.77zM24.48 17.5c-.05.11-.09.13-.33.15v.07h.28v.54h.16v-.76zM25.8 17.5c-.06.11-.1.13-.35.15v.07h.29v.54h.16v-.76zM20.53 16.19c-.05.12-.09.13-.34.15v.07h.29v.54h.16v-.76zM19.2 17.5c-.05.11-.08.13-.33.15v.07h.28v.54h.16v-.76zM20.51 17.5c-.05.11-.1.13-.34.15v.07h.29v.54h.16v-.76zM21.84 17.5c-.06.11-.1.13-.34.15v.07h.28v.54h.16v-.76zM15.22 17.5c-.06.11-.1.13-.34.15v.07h.28v.54h.16v-.76zM2.01 18.84c-.05.11-.1.13-.34.15v.06h.29v.55h.16v-.76zM4.66 18.84c-.06.11-.1.13-.34.15v.06h.28v.55h.16v-.76zM7.3 18.82c-.06.12-.1.13-.34.15v.07h.28v.54h.16v-.76zM32.42 18.82c-.05.12-.09.13-.34.15v.07h.29v.54h.16v-.76zM28.46 18.82c-.05.12-.09.13-.34.15v.07h.29v.54h.16v-.76zM21.84 18.82c-.06.12-.1.13-.34.15v.07h.28v.54h.16v-.76zM15.22 18.82c-.06.12-.1.13-.34.15v.07h.28v.54h.16v-.76zM17.85 18.82c-.06.12-.1.13-.34.15v.07h.29v.54h.16v-.76zM15.22 20.14c-.06.12-.1.14-.34.15v.07h.28v.55h.16v-.77zM15.22 21.47c-.06.11-.1.13-.34.15v.06h.28v.55h.16v-.76zM16.54 20.14c-.06.12-.1.14-.34.15v.07h.28v.55h.16v-.77zM16.54 21.47c-.06.11-.1.13-.34.15v.06h.28v.55h.16v-.76zM17.86 20.14c-.06.12-.1.14-.34.15v.07h.28v.55h.16v-.77zM19.18 20.14c-.06.12-.1.14-.34.15v.07h.28v.55h.16v-.77zM20.53 20.14c-.06.12-.1.14-.34.15v.07h.28v.55h.16v-.77zM21.84 20.14c-.06.12-.1.14-.34.15v.07h.28v.55h.16v-.77zM23.15 20.14c-.06.12-.1.14-.34.15v.07h.28v.55h.16v-.77zM27.14 20.14c-.05.12-.1.14-.34.15v.07h.29v.55h.16v-.77zM28.44 20.14c-.05.12-.09.14-.34.15v.07h.29v.55h.16v-.77zM29.79 20.14c-.06.12-.1.14-.34.15v.07h.28v.55h.16v-.77zM31.12 20.16c-.06.12-.1.13-.34.15v.07h.28v.54h.16v-.76zM31.12 21.47c-.06.11-.1.13-.34.15v.06h.28v.55h.16v-.76zM25.81 21.47c-.06.11-.1.13-.34.15v.06h.29v.55h.15v-.76zM27.14 21.47c-.05.11-.1.13-.34.15v.06h.29v.55h.16v-.76zM28.44 21.47c-.05.11-.09.13-.34.15v.06h.29v.55h.16v-.76zM28.46 22.79c-.05.12-.09.13-.33.15v.07h.28v.54h.16v-.76zM27.14 22.79c-.05.12-.1.13-.34.15v.07h.29v.54h.16v-.76zM25.81 22.79c-.06.12-.1.13-.34.15v.07h.29v.54h.15v-.76zM24.48 22.79c-.06.12-.1.13-.34.15v.07h.28v.54h.16v-.76zM23.18 22.79c-.06.12-.1.13-.34.15v.07h.29v.54h.16v-.76zM21.84 21.47c-.06.11-.1.13-.34.15v.06h.28v.55h.16v-.76zM19.2 21.47c-.06.11-.1.13-.34.15v.06h.28v.55h.16v-.76zM17.88 22.79c-.06.12-.1.13-.34.15v.07h.28v.54h.16v-.76zM32.43 21.47c-.06.11-.1.13-.34.15v.06h.28v.55h.16v-.76zM19.2 22.79c-.06.12-.1.13-.34.15v.07h.28v.54h.16v-.76zM19.2 24.11c-.06.12-.1.13-.34.15v.07h.28v.54h.16v-.76zM20.52 24.11c-.05.12-.1.13-.34.15v.07h.29v.54h.16v-.76zM23.18 24.11c-.06.12-.1.13-.34.15v.07h.28v.54h.16v-.76zM23.18 25.43c-.06.12-.1.14-.34.16v.06h.28v.55h.16v-.77zM25.82 25.45c-.05.12-.09.13-.33.15v.07h.28v.54h.16v-.76zM28.46 25.43c-.05.12-.09.14-.33.16v.06h.28v.55h.16v-.77zM28.46 24.11c-.05.12-.09.13-.33.15v.07h.28v.54h.16v-.76zM29.78 22.79c-.05.12-.09.13-.34.15v.07h.29v.54h.16v-.76zM31.1 22.79c-.06.12-.1.13-.34.15v.07h.29v.54h.16v-.76zM2 22.79c-.05.12-.1.13-.34.15v.07h.29v.54h.16v-.76zM3.31 22.78c-.06.12-.1.14-.34.16V23h.29v.55h.16v-.77zM4.65 22.78c-.06.12-.1.14-.34.16V23h.28v.55h.16v-.77zM5.98 21.47c-.06.11-.1.13-.34.15v.06h.28v.55h.16v-.76zM5.98 22.78c-.05.12-.09.14-.33.16V23h.28v.55h.16v-.77zM7.3 21.47c-.06.11-.1.13-.34.15v.06h.28v.55h.16v-.76zM9.95 20.16c-.06.12-.1.14-.34.15v.07h.28v.55h.16v-.77zM8.6 22.79c-.06.12-.1.13-.34.15v.07h.28v.54h.16v-.76zM9.95 22.8c-.06.1-.1.12-.34.14v.07h.28v.54h.16v-.76zM11.24 20.14c-.05.12-.09.14-.34.15v.07h.29v.55h.16v-.77zM12.57 20.14c-.06.12-.1.14-.34.15v.07h.28v.55h.16v-.77zM12.57 21.47c-.06.11-.1.13-.34.15v.06h.28v.55h.16v-.76zM12.59 22.79c-.06.12-.1.13-.34.15v.07h.28v.54h.16v-.76zM12.59 24.11c-.06.12-.1.13-.34.15v.07h.28v.54h.16v-.76zM13.92 24.13c-.06.11-.1.13-.34.15v.07h.28v.54h.16v-.76zM12.59 25.43c-.06.12-.1.14-.34.16v.06h.28v.55h.16v-.77zM13.92 26.74c-.06.12-.1.14-.34.15v.07h.28v.54h.16v-.76ZM12.59 28.08c-.06.12-.1.13-.34.15v.07h.28v.54h.16v-.76zM15.23 28.08c-.05.12-.1.13-.34.15v.07h.29v.54h.16v-.76zM16.55 28.08c-.06.12-.1.13-.34.15v.07h.28v.54h.16v-.76zM17.89 26.77c-.06.12-.1.14-.34.15V27h.28v.55H18v-.77zM19.2 28.08c-.05.12-.09.13-.34.15v.07h.29v.54h.16v-.76zM20.52 28.08c-.05.12-.1.13-.34.15v.07h.29v.54h.16v-.76zM20.52 26.76c-.05.11-.1.13-.34.15v.07h.29v.54h.16v-.76zM23.16 26.76c-.06.11-.1.13-.34.15v.07h.28v.54h.16v-.76zM23.16 28.08c-.06.12-.1.13-.34.15v.07h.28v.54h.16v-.76zM24.5 28.08c-.05.12-.09.13-.34.15v.07h.29v.54h.16v-.76zM25.82 28.08c-.05.12-.09.13-.33.15v.07h.28v.54h.16v-.76zM27.15 28.08c-.06.12-.1.13-.34.15v.07h.28v.54h.16v-.76zM28.46 28.08c-.05.12-.09.13-.33.15v.07h.28v.54h.16v-.76zM28.46 26.76c-.05.11-.09.13-.33.15v.07h.28v.54h.16v-.76zM29.78 26.76c-.06.11-.1.13-.34.15v.07h.28v.54h.16v-.76zM29.78 28.08c-.06.12-.1.13-.34.15v.07h.29v.54h.16v-.76zM31.09 26.76c-.06.11-.1.13-.34.15v.07h.29v.54h.16v-.76zM31.12 28.1c-.05.12-.09.13-.33.15v.07h.28v.54h.16v-.76zM32.4 26.76c-.05.11-.09.13-.33.15v.07h.28v.54h.16v-.76zM33.75 26.77c-.05.11-.09.13-.33.15v.07h.28v.54h.16v-.76zM33.75 28.08c-.05.12-.09.13-.33.15v.07h.28v.54h.16v-.76zM33.75 29.41c-.05.12-.09.14-.33.16v.06h.28v.55h.16v-.77zM32.42 29.4c-.05.12-.09.14-.33.15v.07h.28v.55h.16v-.77zM31.1 29.4c-.06.12-.1.14-.34.15v.07h.28v.55h.16v-.77zM24.5 29.4c-.05.12-.09.14-.34.15v.07h.29v.55h.16v-.77zM25.82 29.4c-.05.12-.09.14-.33.15v.07h.28v.55h.16v-.77zM27.15 29.4c-.06.12-.1.14-.34.15v.07h.28v.55h.16v-.77zM25.82 30.73c-.05.11-.09.13-.33.15v.07h.28v.54h.16v-.76zM27.15 32.05c-.06.12-.1.13-.34.15v.07h.28v.54h.16v-.76zM24.5 32.05c-.05.12-.09.13-.34.15v.07h.29v.54h.16v-.76zM28.46 32.05c-.05.12-.09.13-.33.15v.07h.28v.54h.16v-.76zM29.78 32.05c-.06.12-.1.13-.34.15v.07h.29v.54h.16v-.76zM29.78 30.73c-.06.11-.1.13-.34.15v.07h.29v.54h.16v-.76zM31.1 32.05c-.06.12-.1.13-.34.15v.07h.28v.54h.16v-.76zM32.41 32.05c-.05.12-.09.13-.33.15v.07h.28v.54h.16v-.76zM32.41 30.74c-.05.12-.09.13-.33.15v.07h.28v.54h.16v-.76zM31.1 33.39c-.06.11-.1.13-.34.15v.07h.28v.54h.16v-.76zM32.44 33.4c-.06.11-.1.13-.34.14v.07h.28v.55h.16v-.77zM33.76 33.39c-.05.11-.1.13-.34.15v.07h.29v.54h.16v-.76zM15.23 29.4c-.05.12-.1.14-.34.15v.07h.29v.55h.16v-.77zM13.92 30.74c-.06.12-.1.13-.34.15v.07h.28v.54h.16v-.76zM16.56 30.74c-.05.12-.09.13-.33.15v.07h.28v.54h.16v-.76zM17.89 29.42c-.06.12-.1.13-.34.15v.07h.28v.54H18v-.76zM17.89 30.74c-.06.12-.1.13-.34.15v.07h.28v.54H18v-.76zM19.21 30.74c-.06.12-.1.13-.34.15v.07h.29v.54h.15v-.76zM20.53 30.73c-.05.11-.09.13-.34.15v.07h.29v.54h.16v-.76zM21.86 30.73c-.06.11-.1.13-.34.15v.07h.28v.54h.16v-.76zM21.86 29.4c-.06.12-.1.14-.34.15v.07h.28v.55h.16v-.77zM16.56 32.05c-.05.12-.09.13-.33.15v.07h.28v.54h.16v-.76zM15.23 33.38c-.06.12-.1.13-.34.15v.07h.28v.54h.16v-.76zM12.59 33.38c-.06.12-.1.13-.34.15v.07h.28v.54h.16v-.76zM17.89 33.38c-.06.12-.1.14-.34.15v.07h.28v.55H18v-.77ZM19.2 33.38c-.06.12-.1.13-.34.15v.07h.28v.54h.16v-.76zM19.2 32.05c-.06.12-.1.13-.34.15v.07h.28v.54h.16v-.76zM21.86 32.05c-.06.12-.1.13-.34.15v.07h.28v.54h.16v-.76zM21.86 33.38c-.06.12-.1.14-.34.15v.07h.28v.55h.16v-.77ZM2 4.28c-.05.12-.09.14-.33.15v.07h.28v.55h.16v-.77zM2 2.95c-.05.12-.09.13-.33.15v.07h.28v.54h.16v-.76zM3.34 1.65c-.06.11-.1.13-.34.15v.07h.28v.54h.16v-.76zM4.66 1.64c-.06.12-.1.13-.34.15v.07h.28v.54h.16v-.76zM5.98 1.63c-.06.11-.1.13-.34.15v.06h.29v.55h.16v-.76zM2 1.65c-.05.11-.09.13-.33.15v.07h.28v.54h.16v-.76zM7.3 1.63c-.05.12-.09.13-.34.15v.07h.29v.54h.16v-.76ZM8.6 1.63c-.05.12-.09.13-.33.15v.07h.28v.54h.16v-.76ZM12.56 1.62c-.05.12-.09.14-.34.15v.07h.29v.54h.16v-.76zM13.89 1.63c-.06.11-.1.13-.34.15v.06h.28v.55H14v-.76zM13.89 2.94c-.06.12-.1.14-.34.16v.06h.28v.55H14v-.77zM15.22 2.94c-.06.12-.1.14-.34.16v.06h.28v.55h.16v-.77zM16.53 1.62c-.06.12-.1.14-.34.15v.07h.29v.54h.15v-.76zM16.55 2.94c-.05.12-.1.14-.34.16v.06h.29v.55h.16v-.77zM9.93 1.64c-.06.11-.1.13-.34.15v.07h.28v.54h.16v-.76z" />
</svg>